G04 #@! TF.GenerationSoftware,KiCad,Pcbnew,6.0.10+dfsg-1~bpo11+1*
G04 #@! TF.ProjectId,project,70726f6a-6563-4742-9e6b-696361645f70,rev?*
G04 #@! TF.SameCoordinates,Original*
G04 #@! TF.FileFunction,Soldermask,Bot*
G04 #@! TF.FilePolarity,Negative*
%FSLAX46Y46*%
G04 Gerber Fmt 4.6, Leading zero omitted, Abs format (unit mm)*
%MOMM*%
%LPD*%
G01*
G04 APERTURE LIST*
G04 #@! TA.AperFunction,Profile*
%ADD10C,0.100000*%
G04 #@! TD*
%ADD11C,2.200000*%
%ADD12R,1.700000X1.700000*%
%ADD13O,1.700000X1.700000*%
%ADD14C,1.700000*%
G04 APERTURE END LIST*
D10*
X163500000Y-130000000D02*
X181500000Y-130000000D01*
X184500000Y-127000000D02*
X184500000Y-103000000D01*
X160500000Y-103000000D02*
X160500000Y-127000000D01*
X163500000Y-100000000D02*
G75*
G03*
X160500000Y-103000000I0J-3000000D01*
G01*
X160500000Y-127000000D02*
G75*
G03*
X163500000Y-130000000I3000000J0D01*
G01*
X184500000Y-103000000D02*
G75*
G03*
X181500000Y-100000000I-3000000J0D01*
G01*
X181500000Y-100000000D02*
X163500000Y-100000000D01*
X181500000Y-130000000D02*
G75*
G03*
X184500000Y-127000000I0J3000000D01*
G01*
D11*
X168500000Y-127000000D03*
D12*
X163210000Y-118800000D03*
D13*
X163210000Y-116260000D03*
X163210000Y-113720000D03*
X163210000Y-111180000D03*
X165750000Y-111180000D03*
X165750000Y-113720000D03*
X165750000Y-116260000D03*
X165750000Y-118800000D03*
D11*
X168500000Y-103000000D03*
G36*
G01*
X173897500Y-106710000D02*
X173897500Y-105510000D01*
G75*
G02*
X174147500Y-105260000I250000J0D01*
G01*
X175347500Y-105260000D01*
G75*
G02*
X175597500Y-105510000I0J-250000D01*
G01*
X175597500Y-106710000D01*
G75*
G02*
X175347500Y-106960000I-250000J0D01*
G01*
X174147500Y-106960000D01*
G75*
G02*
X173897500Y-106710000I0J250000D01*
G01*
G37*
D14*
X177287500Y-106110000D03*
X174747500Y-108650000D03*
X177287500Y-108650000D03*
X174747500Y-111190000D03*
X177287500Y-111190000D03*
X174747500Y-113730000D03*
X177287500Y-113730000D03*
X174747500Y-116270000D03*
X177287500Y-116270000D03*
X174747500Y-118810000D03*
X177287500Y-118810000D03*
X174747500Y-121350000D03*
X177287500Y-121350000D03*
X174747500Y-123890000D03*
X177287500Y-123890000D03*
M02*
