G04 #@! TF.GenerationSoftware,KiCad,Pcbnew,6.0.10+dfsg-1~bpo11+1*
G04 #@! TF.ProjectId,project,70726f6a-6563-4742-9e6b-696361645f70,rev?*
G04 #@! TF.SameCoordinates,Original*
G04 #@! TF.FileFunction,Copper,L2,Bot*
G04 #@! TF.FilePolarity,Positive*
%FSLAX46Y46*%
G04 Gerber Fmt 4.6, Leading zero omitted, Abs format (unit mm)*
%MOMM*%
%LPD*%
G01*
G04 APERTURE LIST*
G04 #@! TA.AperFunction,Profile*
%ADD10C,0.100000*%
G04 #@! TD*
G04 #@! TA.AperFunction,ComponentPad*
%ADD11R,1.700000X1.700000*%
G04 #@! TD*
G04 #@! TA.AperFunction,ComponentPad*
%ADD12O,1.700000X1.700000*%
G04 #@! TD*
G04 #@! TA.AperFunction,ComponentPad*
%ADD13C,1.700000*%
G04 #@! TD*
G04 #@! TA.AperFunction,ViaPad*
%ADD14C,0.700000*%
G04 #@! TD*
G04 #@! TA.AperFunction,Conductor*
%ADD15C,0.500000*%
G04 #@! TD*
G04 #@! TA.AperFunction,Conductor*
%ADD16C,1.000000*%
G04 #@! TD*
G04 APERTURE END LIST*
D10*
X163500000Y-130000000D02*
X181500000Y-130000000D01*
X184500000Y-127000000D02*
X184500000Y-103000000D01*
X160500000Y-103000000D02*
X160500000Y-127000000D01*
X163500000Y-100000000D02*
G75*
G03*
X160500000Y-103000000I0J-3000000D01*
G01*
X160500000Y-127000000D02*
G75*
G03*
X163500000Y-130000000I3000000J0D01*
G01*
X184500000Y-103000000D02*
G75*
G03*
X181500000Y-100000000I-3000000J0D01*
G01*
X181500000Y-100000000D02*
X163500000Y-100000000D01*
X181500000Y-130000000D02*
G75*
G03*
X184500000Y-127000000I0J3000000D01*
G01*
D11*
X163210000Y-118800000D03*
D12*
X163210000Y-116260000D03*
X163210000Y-113720000D03*
X163210000Y-111180000D03*
X165750000Y-111180000D03*
X165750000Y-113720000D03*
X165750000Y-116260000D03*
X165750000Y-118800000D03*
G04 #@! TA.AperFunction,ComponentPad*
G36*
G01*
X173897500Y-106710000D02*
X173897500Y-105510000D01*
G75*
G02*
X174147500Y-105260000I250000J0D01*
G01*
X175347500Y-105260000D01*
G75*
G02*
X175597500Y-105510000I0J-250000D01*
G01*
X175597500Y-106710000D01*
G75*
G02*
X175347500Y-106960000I-250000J0D01*
G01*
X174147500Y-106960000D01*
G75*
G02*
X173897500Y-106710000I0J250000D01*
G01*
G37*
G04 #@! TD.AperFunction*
D13*
X177287500Y-106110000D03*
X174747500Y-108650000D03*
X177287500Y-108650000D03*
X174747500Y-111190000D03*
X177287500Y-111190000D03*
X174747500Y-113730000D03*
X177287500Y-113730000D03*
X174747500Y-116270000D03*
X177287500Y-116270000D03*
X174747500Y-118810000D03*
X177287500Y-118810000D03*
X174747500Y-121350000D03*
X177287500Y-121350000D03*
X174747500Y-123890000D03*
X177287500Y-123890000D03*
D14*
X170500000Y-118000000D03*
D15*
X167137500Y-113720000D02*
X174747500Y-106110000D01*
X165750000Y-113720000D02*
X167137500Y-113720000D01*
X165750000Y-116260000D02*
X167240000Y-116260000D01*
X172310000Y-111190000D02*
X174747500Y-111190000D01*
X167240000Y-116260000D02*
X172310000Y-111190000D01*
D16*
X170500000Y-121500000D02*
X172890000Y-123890000D01*
X172890000Y-123890000D02*
X174747500Y-123890000D01*
X170500000Y-118000000D02*
X170500000Y-121500000D01*
G04 #@! TA.AperFunction,Conductor*
G36*
X181478274Y-100402051D02*
G01*
X181500000Y-100405492D01*
X181509958Y-100403915D01*
X181536726Y-100402563D01*
X181672779Y-100410203D01*
X181783989Y-100416448D01*
X181798023Y-100418029D01*
X181934748Y-100441260D01*
X182071467Y-100464490D01*
X182085242Y-100467634D01*
X182351762Y-100544417D01*
X182365099Y-100549084D01*
X182522017Y-100614081D01*
X182621348Y-100655225D01*
X182634071Y-100661352D01*
X182876829Y-100795520D01*
X182888785Y-100803033D01*
X183114993Y-100963537D01*
X183126040Y-100972346D01*
X183332848Y-101157161D01*
X183342839Y-101167152D01*
X183527654Y-101373960D01*
X183536463Y-101385007D01*
X183696967Y-101611215D01*
X183704480Y-101623171D01*
X183808056Y-101810577D01*
X183838646Y-101865925D01*
X183844777Y-101878656D01*
X183950916Y-102134901D01*
X183955583Y-102148238D01*
X184032366Y-102414758D01*
X184035510Y-102428533D01*
X184066431Y-102610515D01*
X184081970Y-102701972D01*
X184083552Y-102716014D01*
X184097437Y-102963274D01*
X184096085Y-102990042D01*
X184094508Y-103000000D01*
X184096059Y-103009793D01*
X184097949Y-103021726D01*
X184099500Y-103041436D01*
X184099500Y-126958564D01*
X184097949Y-126978274D01*
X184094508Y-127000000D01*
X184096059Y-127009792D01*
X184096085Y-127009956D01*
X184097437Y-127036726D01*
X184083552Y-127283986D01*
X184081971Y-127298023D01*
X184058740Y-127434748D01*
X184035510Y-127571467D01*
X184032366Y-127585242D01*
X183955583Y-127851762D01*
X183950916Y-127865099D01*
X183844777Y-128121344D01*
X183838648Y-128134071D01*
X183704480Y-128376829D01*
X183696967Y-128388785D01*
X183536463Y-128614993D01*
X183527654Y-128626040D01*
X183342839Y-128832848D01*
X183332848Y-128842839D01*
X183126040Y-129027654D01*
X183114993Y-129036463D01*
X182888785Y-129196967D01*
X182876829Y-129204480D01*
X182634071Y-129338648D01*
X182621348Y-129344775D01*
X182522017Y-129385919D01*
X182365099Y-129450916D01*
X182351762Y-129455583D01*
X182085242Y-129532366D01*
X182071467Y-129535510D01*
X181934748Y-129558740D01*
X181798023Y-129581971D01*
X181783989Y-129583552D01*
X181672779Y-129589797D01*
X181536726Y-129597437D01*
X181509958Y-129596085D01*
X181500000Y-129594508D01*
X181490207Y-129596059D01*
X181478274Y-129597949D01*
X181458564Y-129599500D01*
X163541436Y-129599500D01*
X163521726Y-129597949D01*
X163509793Y-129596059D01*
X163500000Y-129594508D01*
X163490042Y-129596085D01*
X163463274Y-129597437D01*
X163327221Y-129589797D01*
X163216011Y-129583552D01*
X163201977Y-129581971D01*
X163065252Y-129558740D01*
X162928533Y-129535510D01*
X162914758Y-129532366D01*
X162648238Y-129455583D01*
X162634901Y-129450916D01*
X162477983Y-129385919D01*
X162378652Y-129344775D01*
X162365929Y-129338648D01*
X162123171Y-129204480D01*
X162111215Y-129196967D01*
X161885007Y-129036463D01*
X161873960Y-129027654D01*
X161667152Y-128842839D01*
X161657161Y-128832848D01*
X161472346Y-128626040D01*
X161463537Y-128614993D01*
X161303033Y-128388785D01*
X161295520Y-128376829D01*
X161161352Y-128134071D01*
X161155223Y-128121344D01*
X161049084Y-127865099D01*
X161044417Y-127851762D01*
X160967634Y-127585242D01*
X160964490Y-127571467D01*
X160941260Y-127434748D01*
X160918029Y-127298023D01*
X160916448Y-127283986D01*
X160906399Y-127105028D01*
X166998025Y-127105028D01*
X167035347Y-127348930D01*
X167112003Y-127583460D01*
X167225935Y-127802321D01*
X167374083Y-127999636D01*
X167552468Y-128170104D01*
X167556740Y-128173018D01*
X167556741Y-128173019D01*
X167585893Y-128192905D01*
X167756300Y-128309149D01*
X167868202Y-128361092D01*
X167975409Y-128410856D01*
X167975413Y-128410857D01*
X167980104Y-128413035D01*
X168217871Y-128478974D01*
X168223008Y-128479523D01*
X168415957Y-128500144D01*
X168415965Y-128500144D01*
X168419292Y-128500500D01*
X168562554Y-128500500D01*
X168565127Y-128500288D01*
X168565138Y-128500288D01*
X168740760Y-128485849D01*
X168740766Y-128485848D01*
X168745911Y-128485425D01*
X168985217Y-128425316D01*
X169211493Y-128326928D01*
X169418661Y-128192905D01*
X169440516Y-128173019D01*
X169476536Y-128140243D01*
X169601158Y-128026846D01*
X169604357Y-128022795D01*
X169604361Y-128022791D01*
X169750881Y-127837264D01*
X169750884Y-127837259D01*
X169754082Y-127833210D01*
X169756577Y-127828691D01*
X169870830Y-127621722D01*
X169870832Y-127621718D01*
X169873327Y-127617198D01*
X169884644Y-127585242D01*
X169953965Y-127389485D01*
X169953966Y-127389481D01*
X169955691Y-127384610D01*
X169956599Y-127379514D01*
X169998055Y-127146783D01*
X169998056Y-127146777D01*
X169998961Y-127141694D01*
X170000572Y-127009792D01*
X170001912Y-126900142D01*
X170001912Y-126900140D01*
X170001975Y-126894972D01*
X169964653Y-126651070D01*
X169887997Y-126416540D01*
X169774065Y-126197679D01*
X169625917Y-126000364D01*
X169447532Y-125829896D01*
X169419212Y-125810577D01*
X169247979Y-125693770D01*
X169247980Y-125693770D01*
X169243700Y-125690851D01*
X169131798Y-125638908D01*
X169024591Y-125589144D01*
X169024587Y-125589143D01*
X169019896Y-125586965D01*
X168782129Y-125521026D01*
X168776992Y-125520477D01*
X168584043Y-125499856D01*
X168584035Y-125499856D01*
X168580708Y-125499500D01*
X168437446Y-125499500D01*
X168434873Y-125499712D01*
X168434862Y-125499712D01*
X168259240Y-125514151D01*
X168259234Y-125514152D01*
X168254089Y-125514575D01*
X168014783Y-125574684D01*
X167788507Y-125673072D01*
X167581339Y-125807095D01*
X167577514Y-125810575D01*
X167577512Y-125810577D01*
X167556281Y-125829896D01*
X167398842Y-125973154D01*
X167395643Y-125977205D01*
X167395639Y-125977209D01*
X167249119Y-126162736D01*
X167249116Y-126162741D01*
X167245918Y-126166790D01*
X167243425Y-126171306D01*
X167243423Y-126171309D01*
X167231150Y-126193543D01*
X167126673Y-126382802D01*
X167124949Y-126387671D01*
X167124947Y-126387675D01*
X167112984Y-126421458D01*
X167044309Y-126615390D01*
X167001039Y-126858306D01*
X166998025Y-127105028D01*
X160906399Y-127105028D01*
X160902563Y-127036726D01*
X160903915Y-127009956D01*
X160903941Y-127009792D01*
X160905492Y-127000000D01*
X160902051Y-126978274D01*
X160900500Y-126958564D01*
X160900500Y-119694669D01*
X161852001Y-119694669D01*
X161852371Y-119701490D01*
X161857895Y-119752352D01*
X161861521Y-119767604D01*
X161906676Y-119888054D01*
X161915214Y-119903649D01*
X161991715Y-120005724D01*
X162004276Y-120018285D01*
X162106351Y-120094786D01*
X162121946Y-120103324D01*
X162242394Y-120148478D01*
X162257649Y-120152105D01*
X162308514Y-120157631D01*
X162315328Y-120158000D01*
X162937885Y-120158000D01*
X162953124Y-120153525D01*
X162954329Y-120152135D01*
X162956000Y-120144452D01*
X162956000Y-119072115D01*
X162951525Y-119056876D01*
X162950135Y-119055671D01*
X162942452Y-119054000D01*
X161870116Y-119054000D01*
X161854877Y-119058475D01*
X161853672Y-119059865D01*
X161852001Y-119067548D01*
X161852001Y-119694669D01*
X160900500Y-119694669D01*
X160900500Y-118527885D01*
X161852000Y-118527885D01*
X161856475Y-118543124D01*
X161857865Y-118544329D01*
X161865548Y-118546000D01*
X163338000Y-118546000D01*
X163406121Y-118566002D01*
X163452614Y-118619658D01*
X163464000Y-118672000D01*
X163464000Y-120139884D01*
X163468475Y-120155123D01*
X163469865Y-120156328D01*
X163477548Y-120157999D01*
X164104669Y-120157999D01*
X164111490Y-120157629D01*
X164162352Y-120152105D01*
X164177604Y-120148479D01*
X164298054Y-120103324D01*
X164313649Y-120094786D01*
X164415724Y-120018285D01*
X164428285Y-120005724D01*
X164504786Y-119903649D01*
X164513324Y-119888054D01*
X164558478Y-119767606D01*
X164562105Y-119752351D01*
X164567631Y-119701486D01*
X164568000Y-119694672D01*
X164568000Y-119689647D01*
X164588002Y-119621526D01*
X164641658Y-119575033D01*
X164711932Y-119564929D01*
X164776512Y-119594423D01*
X164787493Y-119605579D01*
X164788402Y-119606877D01*
X164943123Y-119761598D01*
X164947631Y-119764755D01*
X164947634Y-119764757D01*
X165117852Y-119883945D01*
X165122361Y-119887102D01*
X165127343Y-119889425D01*
X165127348Y-119889428D01*
X165291140Y-119965805D01*
X165320670Y-119979575D01*
X165325978Y-119980997D01*
X165325980Y-119980998D01*
X165357990Y-119989575D01*
X165532023Y-120036207D01*
X165750000Y-120055277D01*
X165967977Y-120036207D01*
X166142010Y-119989575D01*
X166174020Y-119980998D01*
X166174022Y-119980997D01*
X166179330Y-119979575D01*
X166208860Y-119965805D01*
X166372652Y-119889428D01*
X166372657Y-119889425D01*
X166377639Y-119887102D01*
X166382148Y-119883945D01*
X166552366Y-119764757D01*
X166552369Y-119764755D01*
X166556877Y-119761598D01*
X166711598Y-119606877D01*
X166837102Y-119427638D01*
X166929575Y-119229330D01*
X166986207Y-119017977D01*
X167005277Y-118800000D01*
X166986207Y-118582023D01*
X166933677Y-118385980D01*
X166930998Y-118375980D01*
X166930997Y-118375978D01*
X166929575Y-118370670D01*
X166841765Y-118182362D01*
X166839425Y-118177343D01*
X166839423Y-118177340D01*
X166837102Y-118172362D01*
X166711598Y-117993123D01*
X166556877Y-117838402D01*
X166552369Y-117835245D01*
X166552366Y-117835243D01*
X166382148Y-117716055D01*
X166382145Y-117716053D01*
X166377639Y-117712898D01*
X166372657Y-117710575D01*
X166372652Y-117710572D01*
X166230305Y-117644195D01*
X166177020Y-117597278D01*
X166157559Y-117529000D01*
X166178101Y-117461040D01*
X166230305Y-117415805D01*
X166372652Y-117349428D01*
X166372657Y-117349425D01*
X166377639Y-117347102D01*
X166382148Y-117343945D01*
X166552366Y-117224757D01*
X166552369Y-117224755D01*
X166556877Y-117221598D01*
X166711598Y-117066877D01*
X166783472Y-116964230D01*
X166838929Y-116919901D01*
X166886685Y-116910500D01*
X167159000Y-116910500D01*
X167170640Y-116911049D01*
X167178296Y-116912760D01*
X167186219Y-116912511D01*
X167248230Y-116910562D01*
X167252188Y-116910500D01*
X167280925Y-116910500D01*
X167285196Y-116909961D01*
X167297024Y-116909029D01*
X167342569Y-116907597D01*
X167350183Y-116905385D01*
X167350188Y-116905384D01*
X167362792Y-116901722D01*
X167382156Y-116897711D01*
X167403058Y-116895071D01*
X167410429Y-116892152D01*
X167410431Y-116892152D01*
X167445420Y-116878298D01*
X167456631Y-116874459D01*
X167500398Y-116861744D01*
X167518536Y-116851018D01*
X167536281Y-116842324D01*
X167555871Y-116834568D01*
X167592738Y-116807782D01*
X167602646Y-116801275D01*
X167635042Y-116782117D01*
X167635047Y-116782113D01*
X167641865Y-116778081D01*
X167656758Y-116763188D01*
X167671792Y-116750347D01*
X167682423Y-116742623D01*
X167688837Y-116737963D01*
X167717881Y-116702855D01*
X167725870Y-116694076D01*
X172542540Y-111877405D01*
X172604852Y-111843379D01*
X172631635Y-111840500D01*
X173610815Y-111840500D01*
X173678936Y-111860502D01*
X173714028Y-111894230D01*
X173785902Y-111996877D01*
X173940623Y-112151598D01*
X173945131Y-112154755D01*
X173945134Y-112154757D01*
X174108901Y-112269428D01*
X174119861Y-112277102D01*
X174124843Y-112279425D01*
X174124848Y-112279428D01*
X174267195Y-112345805D01*
X174320480Y-112392722D01*
X174339941Y-112461000D01*
X174319399Y-112528960D01*
X174267195Y-112574195D01*
X174124843Y-112640575D01*
X174124840Y-112640577D01*
X174119862Y-112642898D01*
X173940623Y-112768402D01*
X173785902Y-112923123D01*
X173660398Y-113102362D01*
X173567925Y-113300670D01*
X173511293Y-113512023D01*
X173492223Y-113730000D01*
X173511293Y-113947977D01*
X173512717Y-113953290D01*
X173565246Y-114149330D01*
X173567925Y-114159330D01*
X173570247Y-114164310D01*
X173570248Y-114164312D01*
X173657836Y-114352143D01*
X173660398Y-114357638D01*
X173785902Y-114536877D01*
X173940623Y-114691598D01*
X173945131Y-114694755D01*
X173945134Y-114694757D01*
X174108901Y-114809428D01*
X174119861Y-114817102D01*
X174124843Y-114819425D01*
X174124848Y-114819428D01*
X174267195Y-114885805D01*
X174320480Y-114932722D01*
X174339941Y-115001000D01*
X174319399Y-115068960D01*
X174267195Y-115114195D01*
X174124843Y-115180575D01*
X174124840Y-115180577D01*
X174119862Y-115182898D01*
X173940623Y-115308402D01*
X173785902Y-115463123D01*
X173660398Y-115642362D01*
X173567925Y-115840670D01*
X173511293Y-116052023D01*
X173492223Y-116270000D01*
X173511293Y-116487977D01*
X173512717Y-116493290D01*
X173565246Y-116689330D01*
X173567925Y-116699330D01*
X173570247Y-116704310D01*
X173570248Y-116704312D01*
X173657836Y-116892143D01*
X173660398Y-116897638D01*
X173785902Y-117076877D01*
X173940623Y-117231598D01*
X173945131Y-117234755D01*
X173945134Y-117234757D01*
X174115352Y-117353945D01*
X174119861Y-117357102D01*
X174124843Y-117359425D01*
X174124848Y-117359428D01*
X174267195Y-117425805D01*
X174320480Y-117472722D01*
X174339941Y-117541000D01*
X174319399Y-117608960D01*
X174267195Y-117654195D01*
X174124843Y-117720575D01*
X174124840Y-117720577D01*
X174119862Y-117722898D01*
X173940623Y-117848402D01*
X173785902Y-118003123D01*
X173660398Y-118182362D01*
X173567925Y-118380670D01*
X173511293Y-118592023D01*
X173492223Y-118810000D01*
X173511293Y-119027977D01*
X173521896Y-119067548D01*
X173565246Y-119229330D01*
X173567925Y-119239330D01*
X173570247Y-119244310D01*
X173570248Y-119244312D01*
X173657836Y-119432143D01*
X173660398Y-119437638D01*
X173785902Y-119616877D01*
X173940623Y-119771598D01*
X173945131Y-119774755D01*
X173945134Y-119774757D01*
X174106939Y-119888054D01*
X174119861Y-119897102D01*
X174124843Y-119899425D01*
X174124848Y-119899428D01*
X174267195Y-119965805D01*
X174320480Y-120012722D01*
X174339941Y-120081000D01*
X174319399Y-120148960D01*
X174267195Y-120194195D01*
X174124843Y-120260575D01*
X174124840Y-120260577D01*
X174119862Y-120262898D01*
X173940623Y-120388402D01*
X173785902Y-120543123D01*
X173660398Y-120722362D01*
X173567925Y-120920670D01*
X173511293Y-121132023D01*
X173492223Y-121350000D01*
X173511293Y-121567977D01*
X173567925Y-121779330D01*
X173570247Y-121784310D01*
X173570248Y-121784312D01*
X173639474Y-121932766D01*
X173660398Y-121977638D01*
X173785902Y-122156877D01*
X173940623Y-122311598D01*
X173945131Y-122314755D01*
X173945134Y-122314757D01*
X174115352Y-122433945D01*
X174119861Y-122437102D01*
X174124843Y-122439425D01*
X174124848Y-122439428D01*
X174267195Y-122505805D01*
X174320480Y-122552722D01*
X174339941Y-122621000D01*
X174319399Y-122688960D01*
X174267195Y-122734195D01*
X174124843Y-122800575D01*
X174124840Y-122800577D01*
X174119862Y-122802898D01*
X173940623Y-122928402D01*
X173916430Y-122952595D01*
X173854118Y-122986621D01*
X173827335Y-122989500D01*
X173315189Y-122989500D01*
X173247068Y-122969498D01*
X173226094Y-122952595D01*
X171437405Y-121163906D01*
X171403379Y-121101594D01*
X171400500Y-121074811D01*
X171400500Y-117952808D01*
X171387845Y-117832396D01*
X171386364Y-117818307D01*
X171386364Y-117818305D01*
X171385674Y-117811744D01*
X171327179Y-117631716D01*
X171273650Y-117539000D01*
X171235836Y-117473505D01*
X171232533Y-117467784D01*
X171217890Y-117451521D01*
X171110286Y-117332015D01*
X171110284Y-117332014D01*
X171105871Y-117327112D01*
X170952730Y-117215849D01*
X170779803Y-117138856D01*
X170681788Y-117118022D01*
X170601103Y-117100872D01*
X170601099Y-117100872D01*
X170594646Y-117099500D01*
X170405354Y-117099500D01*
X170398901Y-117100872D01*
X170398897Y-117100872D01*
X170318212Y-117118022D01*
X170220197Y-117138856D01*
X170047270Y-117215849D01*
X169894129Y-117327112D01*
X169889716Y-117332014D01*
X169889714Y-117332015D01*
X169782110Y-117451521D01*
X169767467Y-117467784D01*
X169764164Y-117473505D01*
X169726351Y-117539000D01*
X169672821Y-117631716D01*
X169614326Y-117811744D01*
X169613636Y-117818305D01*
X169613636Y-117818307D01*
X169612155Y-117832396D01*
X169599500Y-117952808D01*
X169599500Y-121419213D01*
X169597949Y-121438923D01*
X169595781Y-121452612D01*
X169596126Y-121459200D01*
X169596126Y-121459204D01*
X169599327Y-121520280D01*
X169599500Y-121526874D01*
X169599500Y-121547192D01*
X169599843Y-121550459D01*
X169599844Y-121550470D01*
X169601624Y-121567400D01*
X169602141Y-121573966D01*
X169605687Y-121641646D01*
X169609274Y-121655031D01*
X169612878Y-121674479D01*
X169614326Y-121688256D01*
X169616366Y-121694533D01*
X169616366Y-121694535D01*
X169635265Y-121752701D01*
X169637138Y-121759025D01*
X169652970Y-121818109D01*
X169652972Y-121818115D01*
X169654680Y-121824488D01*
X169657676Y-121830367D01*
X169657677Y-121830371D01*
X169660973Y-121836840D01*
X169668536Y-121855097D01*
X169672821Y-121868284D01*
X169676121Y-121873999D01*
X169676121Y-121874000D01*
X169706703Y-121926971D01*
X169709849Y-121932766D01*
X169735009Y-121982143D01*
X169740617Y-121993149D01*
X169744771Y-121998278D01*
X169744771Y-121998279D01*
X169749339Y-122003920D01*
X169760534Y-122020209D01*
X169767467Y-122032216D01*
X169771888Y-122037126D01*
X169812815Y-122082580D01*
X169817099Y-122087596D01*
X169829881Y-122103380D01*
X169844230Y-122117729D01*
X169848771Y-122122513D01*
X169883220Y-122160772D01*
X169894129Y-122172888D01*
X169905351Y-122181041D01*
X169920379Y-122193878D01*
X172196122Y-124469621D01*
X172208959Y-124484649D01*
X172217112Y-124495871D01*
X172222014Y-124500284D01*
X172222015Y-124500286D01*
X172267487Y-124541229D01*
X172272271Y-124545770D01*
X172286620Y-124560119D01*
X172289184Y-124562195D01*
X172302404Y-124572901D01*
X172307420Y-124577185D01*
X172357784Y-124622533D01*
X172369791Y-124629466D01*
X172386080Y-124640661D01*
X172396851Y-124649383D01*
X172402731Y-124652379D01*
X172402734Y-124652381D01*
X172457234Y-124680151D01*
X172463029Y-124683297D01*
X172516000Y-124713879D01*
X172521716Y-124717179D01*
X172533547Y-124721023D01*
X172534903Y-124721464D01*
X172553160Y-124729027D01*
X172559629Y-124732323D01*
X172559633Y-124732324D01*
X172565512Y-124735320D01*
X172630980Y-124752862D01*
X172637281Y-124754729D01*
X172701744Y-124775674D01*
X172715087Y-124777076D01*
X172715533Y-124777123D01*
X172734971Y-124780726D01*
X172736540Y-124781146D01*
X172748354Y-124784312D01*
X172754954Y-124784658D01*
X172754955Y-124784658D01*
X172816011Y-124787858D01*
X172822585Y-124788375D01*
X172839534Y-124790156D01*
X172839536Y-124790156D01*
X172842808Y-124790500D01*
X172863133Y-124790500D01*
X172869727Y-124790673D01*
X172930796Y-124793874D01*
X172930801Y-124793874D01*
X172937388Y-124794219D01*
X172951077Y-124792051D01*
X172970787Y-124790500D01*
X173827335Y-124790500D01*
X173895456Y-124810502D01*
X173916430Y-124827405D01*
X173940623Y-124851598D01*
X173945131Y-124854755D01*
X173945134Y-124854757D01*
X174115352Y-124973945D01*
X174119861Y-124977102D01*
X174124843Y-124979425D01*
X174124848Y-124979428D01*
X174292200Y-125057465D01*
X174318170Y-125069575D01*
X174323478Y-125070997D01*
X174323480Y-125070998D01*
X174389245Y-125088620D01*
X174529523Y-125126207D01*
X174747500Y-125145277D01*
X174965477Y-125126207D01*
X175105755Y-125088620D01*
X175171520Y-125070998D01*
X175171522Y-125070997D01*
X175176830Y-125069575D01*
X175202800Y-125057465D01*
X175294182Y-125014853D01*
X176527477Y-125014853D01*
X176532758Y-125021907D01*
X176694256Y-125116279D01*
X176703542Y-125120729D01*
X176902501Y-125196703D01*
X176912399Y-125199579D01*
X177121095Y-125242038D01*
X177131323Y-125243257D01*
X177344150Y-125251062D01*
X177354436Y-125250595D01*
X177565685Y-125223534D01*
X177575762Y-125221392D01*
X177779755Y-125160191D01*
X177789342Y-125156433D01*
X177980598Y-125062738D01*
X177989444Y-125057465D01*
X178036747Y-125023723D01*
X178045148Y-125013023D01*
X178038160Y-124999870D01*
X177300312Y-124262022D01*
X177286368Y-124254408D01*
X177284535Y-124254539D01*
X177277920Y-124258790D01*
X176534237Y-125002473D01*
X176527477Y-125014853D01*
X175294182Y-125014853D01*
X175370152Y-124979428D01*
X175370157Y-124979425D01*
X175375139Y-124977102D01*
X175379648Y-124973945D01*
X175549866Y-124854757D01*
X175549869Y-124854755D01*
X175554377Y-124851598D01*
X175709098Y-124696877D01*
X175834602Y-124517638D01*
X175838725Y-124508798D01*
X175841955Y-124501870D01*
X175888871Y-124448585D01*
X175957148Y-124429123D01*
X176025108Y-124449664D01*
X176068615Y-124498306D01*
X176073915Y-124508798D01*
X176153960Y-124639420D01*
X176164416Y-124648880D01*
X176173194Y-124645096D01*
X176915478Y-123902812D01*
X176921856Y-123891132D01*
X177651908Y-123891132D01*
X177652039Y-123892965D01*
X177656290Y-123899580D01*
X178397974Y-124641264D01*
X178409984Y-124647823D01*
X178421723Y-124638855D01*
X178452504Y-124596019D01*
X178457815Y-124587180D01*
X178552170Y-124396267D01*
X178555969Y-124386672D01*
X178617876Y-124182915D01*
X178620055Y-124172834D01*
X178648090Y-123959887D01*
X178648609Y-123953212D01*
X178650072Y-123893364D01*
X178649878Y-123886646D01*
X178632281Y-123672604D01*
X178630596Y-123662424D01*
X178578714Y-123455875D01*
X178575394Y-123446124D01*
X178490472Y-123250814D01*
X178485605Y-123241739D01*
X178420563Y-123141197D01*
X178409877Y-123131995D01*
X178400312Y-123136398D01*
X177659522Y-123877188D01*
X177651908Y-123891132D01*
X176921856Y-123891132D01*
X176923092Y-123888868D01*
X176922961Y-123887035D01*
X176918710Y-123880420D01*
X176177349Y-123139059D01*
X176165813Y-123132759D01*
X176153531Y-123142382D01*
X176105589Y-123212662D01*
X176100504Y-123221613D01*
X176072405Y-123282148D01*
X176025581Y-123335515D01*
X175957338Y-123355096D01*
X175889342Y-123334672D01*
X175843923Y-123282350D01*
X175836925Y-123267344D01*
X175834602Y-123262362D01*
X175709098Y-123083123D01*
X175554377Y-122928402D01*
X175549869Y-122925245D01*
X175549866Y-122925243D01*
X175379648Y-122806055D01*
X175379645Y-122806053D01*
X175375139Y-122802898D01*
X175370157Y-122800575D01*
X175370152Y-122800572D01*
X175227805Y-122734195D01*
X175174520Y-122687278D01*
X175155059Y-122619000D01*
X175175601Y-122551040D01*
X175227805Y-122505805D01*
X175370152Y-122439428D01*
X175370157Y-122439425D01*
X175375139Y-122437102D01*
X175379648Y-122433945D01*
X175549866Y-122314757D01*
X175549869Y-122314755D01*
X175554377Y-122311598D01*
X175709098Y-122156877D01*
X175834602Y-121977638D01*
X175855527Y-121932766D01*
X175903305Y-121830305D01*
X175950223Y-121777020D01*
X176018500Y-121757559D01*
X176086460Y-121778101D01*
X176131695Y-121830305D01*
X176179474Y-121932766D01*
X176200398Y-121977638D01*
X176325902Y-122156877D01*
X176480623Y-122311598D01*
X176485131Y-122314755D01*
X176485134Y-122314757D01*
X176655352Y-122433945D01*
X176659861Y-122437102D01*
X176664843Y-122439425D01*
X176664848Y-122439428D01*
X176680163Y-122446569D01*
X176733448Y-122493486D01*
X176752909Y-122561764D01*
X176732367Y-122629724D01*
X176685093Y-122672527D01*
X176565966Y-122734540D01*
X176557234Y-122740039D01*
X176537177Y-122755099D01*
X176528723Y-122766427D01*
X176535468Y-122778758D01*
X177274688Y-123517978D01*
X177288632Y-123525592D01*
X177290465Y-123525461D01*
X177297080Y-123521210D01*
X178040889Y-122777401D01*
X178047910Y-122764544D01*
X178041111Y-122755213D01*
X178037054Y-122752518D01*
X177888452Y-122670485D01*
X177838482Y-122620053D01*
X177823710Y-122550610D01*
X177848826Y-122484205D01*
X177896096Y-122445982D01*
X177910152Y-122439428D01*
X177910157Y-122439425D01*
X177915139Y-122437102D01*
X177919648Y-122433945D01*
X178089866Y-122314757D01*
X178089869Y-122314755D01*
X178094377Y-122311598D01*
X178249098Y-122156877D01*
X178374602Y-121977638D01*
X178395527Y-121932766D01*
X178464752Y-121784312D01*
X178464753Y-121784310D01*
X178467075Y-121779330D01*
X178523707Y-121567977D01*
X178542777Y-121350000D01*
X178523707Y-121132023D01*
X178467075Y-120920670D01*
X178374602Y-120722362D01*
X178249098Y-120543123D01*
X178094377Y-120388402D01*
X178089869Y-120385245D01*
X178089866Y-120385243D01*
X177919648Y-120266055D01*
X177919645Y-120266053D01*
X177915139Y-120262898D01*
X177910157Y-120260575D01*
X177910152Y-120260572D01*
X177767805Y-120194195D01*
X177714520Y-120147278D01*
X177695059Y-120079000D01*
X177715601Y-120011040D01*
X177767805Y-119965805D01*
X177910152Y-119899428D01*
X177910157Y-119899425D01*
X177915139Y-119897102D01*
X177928061Y-119888054D01*
X178089866Y-119774757D01*
X178089869Y-119774755D01*
X178094377Y-119771598D01*
X178249098Y-119616877D01*
X178374602Y-119437638D01*
X178377165Y-119432143D01*
X178464752Y-119244312D01*
X178464753Y-119244310D01*
X178467075Y-119239330D01*
X178469755Y-119229330D01*
X178513104Y-119067548D01*
X178523707Y-119027977D01*
X178542777Y-118810000D01*
X178523707Y-118592023D01*
X178467075Y-118380670D01*
X178374602Y-118182362D01*
X178249098Y-118003123D01*
X178094377Y-117848402D01*
X178089869Y-117845245D01*
X178089866Y-117845243D01*
X177919648Y-117726055D01*
X177919645Y-117726053D01*
X177915139Y-117722898D01*
X177910157Y-117720575D01*
X177910152Y-117720572D01*
X177767805Y-117654195D01*
X177714520Y-117607278D01*
X177695059Y-117539000D01*
X177715601Y-117471040D01*
X177767805Y-117425805D01*
X177910152Y-117359428D01*
X177910157Y-117359425D01*
X177915139Y-117357102D01*
X177919648Y-117353945D01*
X178089866Y-117234757D01*
X178089869Y-117234755D01*
X178094377Y-117231598D01*
X178249098Y-117076877D01*
X178374602Y-116897638D01*
X178377165Y-116892143D01*
X178464752Y-116704312D01*
X178464753Y-116704310D01*
X178467075Y-116699330D01*
X178469755Y-116689330D01*
X178522283Y-116493290D01*
X178523707Y-116487977D01*
X178542777Y-116270000D01*
X178523707Y-116052023D01*
X178467075Y-115840670D01*
X178374602Y-115642362D01*
X178249098Y-115463123D01*
X178094377Y-115308402D01*
X178089869Y-115305245D01*
X178089866Y-115305243D01*
X177919648Y-115186055D01*
X177919645Y-115186053D01*
X177915139Y-115182898D01*
X177910157Y-115180575D01*
X177910152Y-115180572D01*
X177767805Y-115114195D01*
X177714520Y-115067278D01*
X177695059Y-114999000D01*
X177715601Y-114931040D01*
X177767805Y-114885805D01*
X177910152Y-114819428D01*
X177910157Y-114819425D01*
X177915139Y-114817102D01*
X177926099Y-114809428D01*
X178089866Y-114694757D01*
X178089869Y-114694755D01*
X178094377Y-114691598D01*
X178249098Y-114536877D01*
X178374602Y-114357638D01*
X178377165Y-114352143D01*
X178464752Y-114164312D01*
X178464753Y-114164310D01*
X178467075Y-114159330D01*
X178469755Y-114149330D01*
X178522283Y-113953290D01*
X178523707Y-113947977D01*
X178542777Y-113730000D01*
X178523707Y-113512023D01*
X178467075Y-113300670D01*
X178374602Y-113102362D01*
X178249098Y-112923123D01*
X178094377Y-112768402D01*
X178089869Y-112765245D01*
X178089866Y-112765243D01*
X177919648Y-112646055D01*
X177919645Y-112646053D01*
X177915139Y-112642898D01*
X177910157Y-112640575D01*
X177910152Y-112640572D01*
X177767805Y-112574195D01*
X177714520Y-112527278D01*
X177695059Y-112459000D01*
X177715601Y-112391040D01*
X177767805Y-112345805D01*
X177910152Y-112279428D01*
X177910157Y-112279425D01*
X177915139Y-112277102D01*
X177926099Y-112269428D01*
X178089866Y-112154757D01*
X178089869Y-112154755D01*
X178094377Y-112151598D01*
X178249098Y-111996877D01*
X178374602Y-111817638D01*
X178377165Y-111812143D01*
X178464752Y-111624312D01*
X178464753Y-111624310D01*
X178467075Y-111619330D01*
X178469755Y-111609330D01*
X178522283Y-111413290D01*
X178523707Y-111407977D01*
X178542777Y-111190000D01*
X178523707Y-110972023D01*
X178467075Y-110760670D01*
X178438622Y-110699653D01*
X178376925Y-110567343D01*
X178376923Y-110567340D01*
X178374602Y-110562362D01*
X178249098Y-110383123D01*
X178094377Y-110228402D01*
X178089869Y-110225245D01*
X178089866Y-110225243D01*
X177919648Y-110106055D01*
X177919645Y-110106053D01*
X177915139Y-110102898D01*
X177910157Y-110100575D01*
X177910152Y-110100572D01*
X177767805Y-110034195D01*
X177714520Y-109987278D01*
X177695059Y-109919000D01*
X177715601Y-109851040D01*
X177767805Y-109805805D01*
X177910152Y-109739428D01*
X177910157Y-109739425D01*
X177915139Y-109737102D01*
X177919648Y-109733945D01*
X178089866Y-109614757D01*
X178089869Y-109614755D01*
X178094377Y-109611598D01*
X178249098Y-109456877D01*
X178374602Y-109277638D01*
X178467075Y-109079330D01*
X178523707Y-108867977D01*
X178542777Y-108650000D01*
X178523707Y-108432023D01*
X178467075Y-108220670D01*
X178374602Y-108022362D01*
X178249098Y-107843123D01*
X178094377Y-107688402D01*
X178089869Y-107685245D01*
X178089866Y-107685243D01*
X177919648Y-107566055D01*
X177919645Y-107566053D01*
X177915139Y-107562898D01*
X177910157Y-107560575D01*
X177910152Y-107560572D01*
X177767805Y-107494195D01*
X177714520Y-107447278D01*
X177695059Y-107379000D01*
X177715601Y-107311040D01*
X177767805Y-107265805D01*
X177910152Y-107199428D01*
X177910157Y-107199425D01*
X177915139Y-107197102D01*
X178036870Y-107111865D01*
X178089866Y-107074757D01*
X178089869Y-107074755D01*
X178094377Y-107071598D01*
X178249098Y-106916877D01*
X178374602Y-106737638D01*
X178467075Y-106539330D01*
X178523707Y-106327977D01*
X178542777Y-106110000D01*
X178523707Y-105892023D01*
X178467075Y-105680670D01*
X178464752Y-105675688D01*
X178376925Y-105487343D01*
X178376923Y-105487340D01*
X178374602Y-105482362D01*
X178249098Y-105303123D01*
X178094377Y-105148402D01*
X178089869Y-105145245D01*
X178089866Y-105145243D01*
X177919648Y-105026055D01*
X177919645Y-105026053D01*
X177915139Y-105022898D01*
X177910157Y-105020575D01*
X177910152Y-105020572D01*
X177721812Y-104932748D01*
X177721811Y-104932747D01*
X177716830Y-104930425D01*
X177711522Y-104929003D01*
X177711520Y-104929002D01*
X177625839Y-104906044D01*
X177505477Y-104873793D01*
X177287500Y-104854723D01*
X177069523Y-104873793D01*
X176949161Y-104906044D01*
X176863480Y-104929002D01*
X176863478Y-104929003D01*
X176858170Y-104930425D01*
X176853190Y-104932747D01*
X176853188Y-104932748D01*
X176664843Y-105020575D01*
X176664840Y-105020577D01*
X176659862Y-105022898D01*
X176480623Y-105148402D01*
X176325902Y-105303123D01*
X176220873Y-105453121D01*
X176165418Y-105497449D01*
X176094798Y-105504758D01*
X176031438Y-105472728D01*
X175995452Y-105411527D01*
X175995402Y-105411297D01*
X175995098Y-105407431D01*
X175966105Y-105307635D01*
X175951456Y-105257215D01*
X175951455Y-105257214D01*
X175949244Y-105249602D01*
X175865581Y-105108135D01*
X175749365Y-104991919D01*
X175607898Y-104908256D01*
X175600286Y-104906045D01*
X175600285Y-104906044D01*
X175456254Y-104864199D01*
X175456255Y-104864199D01*
X175450069Y-104862402D01*
X175436916Y-104861367D01*
X175415653Y-104859693D01*
X175415640Y-104859692D01*
X175413194Y-104859500D01*
X174081806Y-104859500D01*
X174079360Y-104859692D01*
X174079347Y-104859693D01*
X174058084Y-104861367D01*
X174044931Y-104862402D01*
X174038745Y-104864199D01*
X174038746Y-104864199D01*
X173894715Y-104906044D01*
X173894714Y-104906045D01*
X173887102Y-104908256D01*
X173745635Y-104991919D01*
X173629419Y-105108135D01*
X173545756Y-105249602D01*
X173543545Y-105257214D01*
X173543544Y-105257215D01*
X173528896Y-105307635D01*
X173499902Y-105407431D01*
X173499397Y-105413850D01*
X173497193Y-105441847D01*
X173497192Y-105441860D01*
X173497000Y-105444306D01*
X173497000Y-106388364D01*
X173476998Y-106456485D01*
X173460095Y-106477459D01*
X166946613Y-112990941D01*
X166884301Y-113024967D01*
X166813486Y-113019902D01*
X166754308Y-112974119D01*
X166711598Y-112913123D01*
X166556877Y-112758402D01*
X166552369Y-112755245D01*
X166552366Y-112755243D01*
X166382148Y-112636055D01*
X166382145Y-112636053D01*
X166377639Y-112632898D01*
X166372657Y-112630575D01*
X166372652Y-112630572D01*
X166230305Y-112564195D01*
X166177020Y-112517278D01*
X166157559Y-112449000D01*
X166178101Y-112381040D01*
X166230305Y-112335805D01*
X166372652Y-112269428D01*
X166372657Y-112269425D01*
X166377639Y-112267102D01*
X166382148Y-112263945D01*
X166552366Y-112144757D01*
X166552369Y-112144755D01*
X166556877Y-112141598D01*
X166711598Y-111986877D01*
X166837102Y-111807638D01*
X166929575Y-111609330D01*
X166986207Y-111397977D01*
X167005277Y-111180000D01*
X166986207Y-110962023D01*
X166933677Y-110765980D01*
X166930998Y-110755980D01*
X166930997Y-110755978D01*
X166929575Y-110750670D01*
X166903069Y-110693827D01*
X166839425Y-110557343D01*
X166839423Y-110557340D01*
X166837102Y-110552362D01*
X166711598Y-110373123D01*
X166556877Y-110218402D01*
X166552369Y-110215245D01*
X166552366Y-110215243D01*
X166382148Y-110096055D01*
X166382145Y-110096053D01*
X166377639Y-110092898D01*
X166372657Y-110090575D01*
X166372652Y-110090572D01*
X166184312Y-110002748D01*
X166184311Y-110002747D01*
X166179330Y-110000425D01*
X166174022Y-109999003D01*
X166174020Y-109999002D01*
X166108255Y-109981380D01*
X165967977Y-109943793D01*
X165750000Y-109924723D01*
X165532023Y-109943793D01*
X165391745Y-109981380D01*
X165325980Y-109999002D01*
X165325978Y-109999003D01*
X165320670Y-110000425D01*
X165315690Y-110002747D01*
X165315688Y-110002748D01*
X165127343Y-110090575D01*
X165127340Y-110090577D01*
X165122362Y-110092898D01*
X164943123Y-110218402D01*
X164788402Y-110373123D01*
X164662898Y-110552362D01*
X164660577Y-110557340D01*
X164660575Y-110557343D01*
X164594195Y-110699695D01*
X164547277Y-110752980D01*
X164479000Y-110772441D01*
X164411040Y-110751899D01*
X164365805Y-110699695D01*
X164299425Y-110557343D01*
X164299423Y-110557340D01*
X164297102Y-110552362D01*
X164171598Y-110373123D01*
X164016877Y-110218402D01*
X164012369Y-110215245D01*
X164012366Y-110215243D01*
X163842148Y-110096055D01*
X163842145Y-110096053D01*
X163837639Y-110092898D01*
X163832657Y-110090575D01*
X163832652Y-110090572D01*
X163644312Y-110002748D01*
X163644311Y-110002747D01*
X163639330Y-110000425D01*
X163634022Y-109999003D01*
X163634020Y-109999002D01*
X163568255Y-109981380D01*
X163427977Y-109943793D01*
X163210000Y-109924723D01*
X162992023Y-109943793D01*
X162851745Y-109981380D01*
X162785980Y-109999002D01*
X162785978Y-109999003D01*
X162780670Y-110000425D01*
X162775690Y-110002747D01*
X162775688Y-110002748D01*
X162587343Y-110090575D01*
X162587340Y-110090577D01*
X162582362Y-110092898D01*
X162403123Y-110218402D01*
X162248402Y-110373123D01*
X162122898Y-110552362D01*
X162120577Y-110557340D01*
X162120575Y-110557343D01*
X162056931Y-110693827D01*
X162030425Y-110750670D01*
X162029003Y-110755978D01*
X162029002Y-110755980D01*
X162026323Y-110765980D01*
X161973793Y-110962023D01*
X161954723Y-111180000D01*
X161973793Y-111397977D01*
X162030425Y-111609330D01*
X162122898Y-111807638D01*
X162248402Y-111986877D01*
X162403123Y-112141598D01*
X162407631Y-112144755D01*
X162407634Y-112144757D01*
X162577852Y-112263945D01*
X162582361Y-112267102D01*
X162587343Y-112269425D01*
X162587348Y-112269428D01*
X162729695Y-112335805D01*
X162782980Y-112382722D01*
X162802441Y-112451000D01*
X162781899Y-112518960D01*
X162729695Y-112564195D01*
X162587343Y-112630575D01*
X162587340Y-112630577D01*
X162582362Y-112632898D01*
X162403123Y-112758402D01*
X162248402Y-112913123D01*
X162122898Y-113092362D01*
X162120577Y-113097340D01*
X162120575Y-113097343D01*
X162118235Y-113102362D01*
X162030425Y-113290670D01*
X162029003Y-113295978D01*
X162029002Y-113295980D01*
X162026323Y-113305980D01*
X161973793Y-113502023D01*
X161954723Y-113720000D01*
X161973793Y-113937977D01*
X162030425Y-114149330D01*
X162032747Y-114154310D01*
X162032748Y-114154312D01*
X162118543Y-114338298D01*
X162122898Y-114347638D01*
X162248402Y-114526877D01*
X162403123Y-114681598D01*
X162407631Y-114684755D01*
X162407634Y-114684757D01*
X162577852Y-114803945D01*
X162582361Y-114807102D01*
X162587343Y-114809425D01*
X162587348Y-114809428D01*
X162729695Y-114875805D01*
X162782980Y-114922722D01*
X162802441Y-114991000D01*
X162781899Y-115058960D01*
X162729695Y-115104195D01*
X162587343Y-115170575D01*
X162587340Y-115170577D01*
X162582362Y-115172898D01*
X162403123Y-115298402D01*
X162248402Y-115453123D01*
X162122898Y-115632362D01*
X162120577Y-115637340D01*
X162120575Y-115637343D01*
X162118235Y-115642362D01*
X162030425Y-115830670D01*
X162029003Y-115835978D01*
X162029002Y-115835980D01*
X162026323Y-115845980D01*
X161973793Y-116042023D01*
X161954723Y-116260000D01*
X161973793Y-116477977D01*
X162030425Y-116689330D01*
X162032747Y-116694310D01*
X162032748Y-116694312D01*
X162118543Y-116878298D01*
X162122898Y-116887638D01*
X162248402Y-117066877D01*
X162403123Y-117221598D01*
X162402902Y-117221819D01*
X162440673Y-117278597D01*
X162441795Y-117349585D01*
X162404360Y-117409910D01*
X162340253Y-117440420D01*
X162320353Y-117442001D01*
X162315331Y-117442001D01*
X162308510Y-117442371D01*
X162257648Y-117447895D01*
X162242396Y-117451521D01*
X162121946Y-117496676D01*
X162106351Y-117505214D01*
X162004276Y-117581715D01*
X161991715Y-117594276D01*
X161915214Y-117696351D01*
X161906676Y-117711946D01*
X161861522Y-117832394D01*
X161857895Y-117847649D01*
X161852369Y-117898514D01*
X161852000Y-117905328D01*
X161852000Y-118527885D01*
X160900500Y-118527885D01*
X160900500Y-103105028D01*
X166998025Y-103105028D01*
X167035347Y-103348930D01*
X167112003Y-103583460D01*
X167225935Y-103802321D01*
X167374083Y-103999636D01*
X167552468Y-104170104D01*
X167556740Y-104173018D01*
X167556741Y-104173019D01*
X167585893Y-104192905D01*
X167756300Y-104309149D01*
X167868202Y-104361092D01*
X167975409Y-104410856D01*
X167975413Y-104410857D01*
X167980104Y-104413035D01*
X168217871Y-104478974D01*
X168223008Y-104479523D01*
X168415957Y-104500144D01*
X168415965Y-104500144D01*
X168419292Y-104500500D01*
X168562554Y-104500500D01*
X168565127Y-104500288D01*
X168565138Y-104500288D01*
X168740760Y-104485849D01*
X168740766Y-104485848D01*
X168745911Y-104485425D01*
X168985217Y-104425316D01*
X169211493Y-104326928D01*
X169418661Y-104192905D01*
X169440516Y-104173019D01*
X169476536Y-104140243D01*
X169601158Y-104026846D01*
X169604357Y-104022795D01*
X169604361Y-104022791D01*
X169750881Y-103837264D01*
X169750884Y-103837259D01*
X169754082Y-103833210D01*
X169756577Y-103828691D01*
X169870830Y-103621722D01*
X169870832Y-103621718D01*
X169873327Y-103617198D01*
X169885275Y-103583460D01*
X169953965Y-103389485D01*
X169953966Y-103389481D01*
X169955691Y-103384610D01*
X169998961Y-103141694D01*
X170001975Y-102894972D01*
X169964653Y-102651070D01*
X169887997Y-102416540D01*
X169774065Y-102197679D01*
X169625917Y-102000364D01*
X169447532Y-101829896D01*
X169419212Y-101810577D01*
X169247979Y-101693770D01*
X169247980Y-101693770D01*
X169243700Y-101690851D01*
X169097913Y-101623179D01*
X169024591Y-101589144D01*
X169024587Y-101589143D01*
X169019896Y-101586965D01*
X168782129Y-101521026D01*
X168776992Y-101520477D01*
X168584043Y-101499856D01*
X168584035Y-101499856D01*
X168580708Y-101499500D01*
X168437446Y-101499500D01*
X168434873Y-101499712D01*
X168434862Y-101499712D01*
X168259240Y-101514151D01*
X168259234Y-101514152D01*
X168254089Y-101514575D01*
X168014783Y-101574684D01*
X167788507Y-101673072D01*
X167581339Y-101807095D01*
X167577514Y-101810575D01*
X167577512Y-101810577D01*
X167556281Y-101829896D01*
X167398842Y-101973154D01*
X167395643Y-101977205D01*
X167395639Y-101977209D01*
X167249119Y-102162736D01*
X167249116Y-102162741D01*
X167245918Y-102166790D01*
X167243425Y-102171306D01*
X167243423Y-102171309D01*
X167231150Y-102193543D01*
X167126673Y-102382802D01*
X167124949Y-102387671D01*
X167124947Y-102387675D01*
X167046035Y-102610515D01*
X167044309Y-102615390D01*
X167043402Y-102620483D01*
X167043401Y-102620486D01*
X167027644Y-102708948D01*
X167001039Y-102858306D01*
X167000976Y-102863469D01*
X166999346Y-102996933D01*
X166998025Y-103105028D01*
X160900500Y-103105028D01*
X160900500Y-103041436D01*
X160902051Y-103021726D01*
X160903941Y-103009793D01*
X160905492Y-103000000D01*
X160903915Y-102990042D01*
X160902563Y-102963274D01*
X160916448Y-102716014D01*
X160918030Y-102701972D01*
X160933570Y-102610515D01*
X160964490Y-102428533D01*
X160967634Y-102414758D01*
X161044417Y-102148238D01*
X161049084Y-102134901D01*
X161155223Y-101878656D01*
X161161354Y-101865925D01*
X161191944Y-101810577D01*
X161295520Y-101623171D01*
X161303033Y-101611215D01*
X161463537Y-101385007D01*
X161472346Y-101373960D01*
X161657161Y-101167152D01*
X161667152Y-101157161D01*
X161873960Y-100972346D01*
X161885007Y-100963537D01*
X162111215Y-100803033D01*
X162123171Y-100795520D01*
X162365929Y-100661352D01*
X162378652Y-100655225D01*
X162477983Y-100614081D01*
X162634901Y-100549084D01*
X162648238Y-100544417D01*
X162914758Y-100467634D01*
X162928533Y-100464490D01*
X163065252Y-100441260D01*
X163201977Y-100418029D01*
X163216011Y-100416448D01*
X163327221Y-100410203D01*
X163463274Y-100402563D01*
X163490042Y-100403915D01*
X163500000Y-100405492D01*
X163521726Y-100402051D01*
X163541436Y-100400500D01*
X181458564Y-100400500D01*
X181478274Y-100402051D01*
G37*
G04 #@! TD.AperFunction*
M02*
