%TF.GenerationSoftware,KiCad,Pcbnew,6.0.10+dfsg-1~bpo11+1*%
%TF.ProjectId,project,70726f6a-6563-4742-9e6b-696361645f70,rev?*%
%TF.SameCoordinates,Original*%
%TF.FileFunction,Drillmap*%
%TF.FilePolarity,Positive*%
%FSLAX45Y45*%
G04 Gerber Fmt 4.5, Leading zero omitted, Abs format (unit mm)*
%MOMM*%
%LPD*%
G01*
G04 APERTURE LIST*
%ADD10C,0.100000*%
%ADD11C,0.200000*%
%ADD12C,0.220000*%
G04 APERTURE END LIST*
D10*
X16350000Y-13000000D02*
X18150000Y-13000000D01*
X18450000Y-12700000D02*
X18450000Y-10300000D01*
X16050000Y-10300000D02*
X16050000Y-12700000D01*
X16350000Y-10000000D02*
G75*
G03*
X16050000Y-10300000I0J-300000D01*
G01*
X16050000Y-12700000D02*
G75*
G03*
X16350000Y-13000000I300000J0D01*
G01*
X18450000Y-10300000D02*
G75*
G03*
X18150000Y-10000000I-300000J0D01*
G01*
X18150000Y-10000000D02*
X16350000Y-10000000D01*
X18150000Y-13000000D02*
G75*
G03*
X18450000Y-12700000I0J300000D01*
G01*
D11*
D12*
X16740000Y-10190000D02*
X16960000Y-10410000D01*
X16960000Y-10190000D02*
X16740000Y-10410000D01*
X16740000Y-12590000D02*
X16960000Y-12810000D01*
X16960000Y-12590000D02*
X16740000Y-12810000D01*
D11*
X16302619Y-13315476D02*
X16302619Y-13115476D01*
X16350238Y-13115476D01*
X16378809Y-13125000D01*
X16397857Y-13144048D01*
X16407381Y-13163095D01*
X16416905Y-13201190D01*
X16416905Y-13229762D01*
X16407381Y-13267857D01*
X16397857Y-13286905D01*
X16378809Y-13305952D01*
X16350238Y-13315476D01*
X16302619Y-13315476D01*
X16502619Y-13315476D02*
X16502619Y-13182143D01*
X16502619Y-13220238D02*
X16512143Y-13201190D01*
X16521667Y-13191667D01*
X16540714Y-13182143D01*
X16559762Y-13182143D01*
X16626428Y-13315476D02*
X16626428Y-13182143D01*
X16626428Y-13115476D02*
X16616905Y-13125000D01*
X16626428Y-13134524D01*
X16635952Y-13125000D01*
X16626428Y-13115476D01*
X16626428Y-13134524D01*
X16750238Y-13315476D02*
X16731190Y-13305952D01*
X16721667Y-13286905D01*
X16721667Y-13115476D01*
X16855000Y-13315476D02*
X16835952Y-13305952D01*
X16826429Y-13286905D01*
X16826429Y-13115476D01*
X17083571Y-13315476D02*
X17083571Y-13115476D01*
X17150238Y-13258333D01*
X17216905Y-13115476D01*
X17216905Y-13315476D01*
X17397857Y-13315476D02*
X17397857Y-13210714D01*
X17388333Y-13191667D01*
X17369286Y-13182143D01*
X17331190Y-13182143D01*
X17312143Y-13191667D01*
X17397857Y-13305952D02*
X17378810Y-13315476D01*
X17331190Y-13315476D01*
X17312143Y-13305952D01*
X17302619Y-13286905D01*
X17302619Y-13267857D01*
X17312143Y-13248809D01*
X17331190Y-13239286D01*
X17378810Y-13239286D01*
X17397857Y-13229762D01*
X17493095Y-13182143D02*
X17493095Y-13382143D01*
X17493095Y-13191667D02*
X17512143Y-13182143D01*
X17550238Y-13182143D01*
X17569286Y-13191667D01*
X17578810Y-13201190D01*
X17588333Y-13220238D01*
X17588333Y-13277381D01*
X17578810Y-13296428D01*
X17569286Y-13305952D01*
X17550238Y-13315476D01*
X17512143Y-13315476D01*
X17493095Y-13305952D01*
X17674048Y-13296428D02*
X17683571Y-13305952D01*
X17674048Y-13315476D01*
X17664524Y-13305952D01*
X17674048Y-13296428D01*
X17674048Y-13315476D01*
X17674048Y-13191667D02*
X17683571Y-13201190D01*
X17674048Y-13210714D01*
X17664524Y-13201190D01*
X17674048Y-13191667D01*
X17674048Y-13210714D01*
X15845000Y-13545000D02*
X16045000Y-13745000D01*
X16045000Y-13545000D02*
X15845000Y-13745000D01*
X16293095Y-13554524D02*
X16302619Y-13545000D01*
X16321667Y-13535476D01*
X16369286Y-13535476D01*
X16388333Y-13545000D01*
X16397857Y-13554524D01*
X16407381Y-13573571D01*
X16407381Y-13592619D01*
X16397857Y-13621190D01*
X16283571Y-13735476D01*
X16407381Y-13735476D01*
X16493095Y-13716428D02*
X16502619Y-13725952D01*
X16493095Y-13735476D01*
X16483571Y-13725952D01*
X16493095Y-13716428D01*
X16493095Y-13735476D01*
X16578809Y-13554524D02*
X16588333Y-13545000D01*
X16607381Y-13535476D01*
X16655000Y-13535476D01*
X16674048Y-13545000D01*
X16683571Y-13554524D01*
X16693095Y-13573571D01*
X16693095Y-13592619D01*
X16683571Y-13621190D01*
X16569286Y-13735476D01*
X16693095Y-13735476D01*
X16816905Y-13535476D02*
X16835952Y-13535476D01*
X16855000Y-13545000D01*
X16864524Y-13554524D01*
X16874048Y-13573571D01*
X16883571Y-13611667D01*
X16883571Y-13659286D01*
X16874048Y-13697381D01*
X16864524Y-13716428D01*
X16855000Y-13725952D01*
X16835952Y-13735476D01*
X16816905Y-13735476D01*
X16797857Y-13725952D01*
X16788333Y-13716428D01*
X16778810Y-13697381D01*
X16769286Y-13659286D01*
X16769286Y-13611667D01*
X16778810Y-13573571D01*
X16788333Y-13554524D01*
X16797857Y-13545000D01*
X16816905Y-13535476D01*
X17007381Y-13535476D02*
X17026429Y-13535476D01*
X17045476Y-13545000D01*
X17055000Y-13554524D01*
X17064524Y-13573571D01*
X17074048Y-13611667D01*
X17074048Y-13659286D01*
X17064524Y-13697381D01*
X17055000Y-13716428D01*
X17045476Y-13725952D01*
X17026429Y-13735476D01*
X17007381Y-13735476D01*
X16988333Y-13725952D01*
X16978810Y-13716428D01*
X16969286Y-13697381D01*
X16959762Y-13659286D01*
X16959762Y-13611667D01*
X16969286Y-13573571D01*
X16978810Y-13554524D01*
X16988333Y-13545000D01*
X17007381Y-13535476D01*
X17159762Y-13735476D02*
X17159762Y-13602143D01*
X17159762Y-13621190D02*
X17169286Y-13611667D01*
X17188333Y-13602143D01*
X17216905Y-13602143D01*
X17235952Y-13611667D01*
X17245476Y-13630714D01*
X17245476Y-13735476D01*
X17245476Y-13630714D02*
X17255000Y-13611667D01*
X17274048Y-13602143D01*
X17302619Y-13602143D01*
X17321667Y-13611667D01*
X17331190Y-13630714D01*
X17331190Y-13735476D01*
X17426429Y-13735476D02*
X17426429Y-13602143D01*
X17426429Y-13621190D02*
X17435952Y-13611667D01*
X17455000Y-13602143D01*
X17483571Y-13602143D01*
X17502619Y-13611667D01*
X17512143Y-13630714D01*
X17512143Y-13735476D01*
X17512143Y-13630714D02*
X17521667Y-13611667D01*
X17540714Y-13602143D01*
X17569286Y-13602143D01*
X17588333Y-13611667D01*
X17597857Y-13630714D01*
X17597857Y-13735476D01*
X17988333Y-13525952D02*
X17816905Y-13783095D01*
X18245476Y-13535476D02*
X18264524Y-13535476D01*
X18283571Y-13545000D01*
X18293095Y-13554524D01*
X18302619Y-13573571D01*
X18312143Y-13611667D01*
X18312143Y-13659286D01*
X18302619Y-13697381D01*
X18293095Y-13716428D01*
X18283571Y-13725952D01*
X18264524Y-13735476D01*
X18245476Y-13735476D01*
X18226429Y-13725952D01*
X18216905Y-13716428D01*
X18207381Y-13697381D01*
X18197857Y-13659286D01*
X18197857Y-13611667D01*
X18207381Y-13573571D01*
X18216905Y-13554524D01*
X18226429Y-13545000D01*
X18245476Y-13535476D01*
X18397857Y-13716428D02*
X18407381Y-13725952D01*
X18397857Y-13735476D01*
X18388333Y-13725952D01*
X18397857Y-13716428D01*
X18397857Y-13735476D01*
X18531190Y-13535476D02*
X18550238Y-13535476D01*
X18569286Y-13545000D01*
X18578810Y-13554524D01*
X18588333Y-13573571D01*
X18597857Y-13611667D01*
X18597857Y-13659286D01*
X18588333Y-13697381D01*
X18578810Y-13716428D01*
X18569286Y-13725952D01*
X18550238Y-13735476D01*
X18531190Y-13735476D01*
X18512143Y-13725952D01*
X18502619Y-13716428D01*
X18493095Y-13697381D01*
X18483571Y-13659286D01*
X18483571Y-13611667D01*
X18493095Y-13573571D01*
X18502619Y-13554524D01*
X18512143Y-13545000D01*
X18531190Y-13535476D01*
X18712143Y-13621190D02*
X18693095Y-13611667D01*
X18683571Y-13602143D01*
X18674048Y-13583095D01*
X18674048Y-13573571D01*
X18683571Y-13554524D01*
X18693095Y-13545000D01*
X18712143Y-13535476D01*
X18750238Y-13535476D01*
X18769286Y-13545000D01*
X18778810Y-13554524D01*
X18788333Y-13573571D01*
X18788333Y-13583095D01*
X18778810Y-13602143D01*
X18769286Y-13611667D01*
X18750238Y-13621190D01*
X18712143Y-13621190D01*
X18693095Y-13630714D01*
X18683571Y-13640238D01*
X18674048Y-13659286D01*
X18674048Y-13697381D01*
X18683571Y-13716428D01*
X18693095Y-13725952D01*
X18712143Y-13735476D01*
X18750238Y-13735476D01*
X18769286Y-13725952D01*
X18778810Y-13716428D01*
X18788333Y-13697381D01*
X18788333Y-13659286D01*
X18778810Y-13640238D01*
X18769286Y-13630714D01*
X18750238Y-13621190D01*
X18959762Y-13535476D02*
X18921667Y-13535476D01*
X18902619Y-13545000D01*
X18893095Y-13554524D01*
X18874048Y-13583095D01*
X18864524Y-13621190D01*
X18864524Y-13697381D01*
X18874048Y-13716428D01*
X18883571Y-13725952D01*
X18902619Y-13735476D01*
X18940714Y-13735476D01*
X18959762Y-13725952D01*
X18969286Y-13716428D01*
X18978810Y-13697381D01*
X18978810Y-13649762D01*
X18969286Y-13630714D01*
X18959762Y-13621190D01*
X18940714Y-13611667D01*
X18902619Y-13611667D01*
X18883571Y-13621190D01*
X18874048Y-13630714D01*
X18864524Y-13649762D01*
X19150238Y-13535476D02*
X19112143Y-13535476D01*
X19093095Y-13545000D01*
X19083571Y-13554524D01*
X19064524Y-13583095D01*
X19055000Y-13621190D01*
X19055000Y-13697381D01*
X19064524Y-13716428D01*
X19074048Y-13725952D01*
X19093095Y-13735476D01*
X19131190Y-13735476D01*
X19150238Y-13725952D01*
X19159762Y-13716428D01*
X19169286Y-13697381D01*
X19169286Y-13649762D01*
X19159762Y-13630714D01*
X19150238Y-13621190D01*
X19131190Y-13611667D01*
X19093095Y-13611667D01*
X19074048Y-13621190D01*
X19064524Y-13630714D01*
X19055000Y-13649762D01*
X19245476Y-13535476D02*
X19245476Y-13573571D01*
X19321667Y-13535476D02*
X19321667Y-13573571D01*
X19616905Y-13811667D02*
X19607381Y-13802143D01*
X19588333Y-13773571D01*
X19578810Y-13754524D01*
X19569286Y-13725952D01*
X19559762Y-13678333D01*
X19559762Y-13640238D01*
X19569286Y-13592619D01*
X19578810Y-13564048D01*
X19588333Y-13545000D01*
X19607381Y-13516428D01*
X19616905Y-13506905D01*
X19683571Y-13554524D02*
X19693095Y-13545000D01*
X19712143Y-13535476D01*
X19759762Y-13535476D01*
X19778810Y-13545000D01*
X19788333Y-13554524D01*
X19797857Y-13573571D01*
X19797857Y-13592619D01*
X19788333Y-13621190D01*
X19674048Y-13735476D01*
X19797857Y-13735476D01*
X20035952Y-13735476D02*
X20035952Y-13535476D01*
X20121667Y-13735476D02*
X20121667Y-13630714D01*
X20112143Y-13611667D01*
X20093095Y-13602143D01*
X20064524Y-13602143D01*
X20045476Y-13611667D01*
X20035952Y-13621190D01*
X20245476Y-13735476D02*
X20226429Y-13725952D01*
X20216905Y-13716428D01*
X20207381Y-13697381D01*
X20207381Y-13640238D01*
X20216905Y-13621190D01*
X20226429Y-13611667D01*
X20245476Y-13602143D01*
X20274048Y-13602143D01*
X20293095Y-13611667D01*
X20302619Y-13621190D01*
X20312143Y-13640238D01*
X20312143Y-13697381D01*
X20302619Y-13716428D01*
X20293095Y-13725952D01*
X20274048Y-13735476D01*
X20245476Y-13735476D01*
X20426429Y-13735476D02*
X20407381Y-13725952D01*
X20397857Y-13706905D01*
X20397857Y-13535476D01*
X20578810Y-13725952D02*
X20559762Y-13735476D01*
X20521667Y-13735476D01*
X20502619Y-13725952D01*
X20493095Y-13706905D01*
X20493095Y-13630714D01*
X20502619Y-13611667D01*
X20521667Y-13602143D01*
X20559762Y-13602143D01*
X20578810Y-13611667D01*
X20588333Y-13630714D01*
X20588333Y-13649762D01*
X20493095Y-13668809D01*
X20664524Y-13725952D02*
X20683571Y-13735476D01*
X20721667Y-13735476D01*
X20740714Y-13725952D01*
X20750238Y-13706905D01*
X20750238Y-13697381D01*
X20740714Y-13678333D01*
X20721667Y-13668809D01*
X20693095Y-13668809D01*
X20674048Y-13659286D01*
X20664524Y-13640238D01*
X20664524Y-13630714D01*
X20674048Y-13611667D01*
X20693095Y-13602143D01*
X20721667Y-13602143D01*
X20740714Y-13611667D01*
X20816905Y-13811667D02*
X20826429Y-13802143D01*
X20845476Y-13773571D01*
X20855000Y-13754524D01*
X20864524Y-13725952D01*
X20874048Y-13678333D01*
X20874048Y-13640238D01*
X20864524Y-13592619D01*
X20855000Y-13564048D01*
X20845476Y-13545000D01*
X20826429Y-13516428D01*
X20816905Y-13506905D01*
X21178810Y-13811667D02*
X21169286Y-13802143D01*
X21150238Y-13773571D01*
X21140714Y-13754524D01*
X21131190Y-13725952D01*
X21121667Y-13678333D01*
X21121667Y-13640238D01*
X21131190Y-13592619D01*
X21140714Y-13564048D01*
X21150238Y-13545000D01*
X21169286Y-13516428D01*
X21178810Y-13506905D01*
X21255000Y-13602143D02*
X21255000Y-13735476D01*
X21255000Y-13621190D02*
X21264524Y-13611667D01*
X21283571Y-13602143D01*
X21312143Y-13602143D01*
X21331190Y-13611667D01*
X21340714Y-13630714D01*
X21340714Y-13735476D01*
X21464524Y-13735476D02*
X21445476Y-13725952D01*
X21435952Y-13716428D01*
X21426429Y-13697381D01*
X21426429Y-13640238D01*
X21435952Y-13621190D01*
X21445476Y-13611667D01*
X21464524Y-13602143D01*
X21493095Y-13602143D01*
X21512143Y-13611667D01*
X21521667Y-13621190D01*
X21531190Y-13640238D01*
X21531190Y-13697381D01*
X21521667Y-13716428D01*
X21512143Y-13725952D01*
X21493095Y-13735476D01*
X21464524Y-13735476D01*
X21588333Y-13602143D02*
X21664524Y-13602143D01*
X21616905Y-13535476D02*
X21616905Y-13706905D01*
X21626429Y-13725952D01*
X21645476Y-13735476D01*
X21664524Y-13735476D01*
X21883571Y-13602143D02*
X21883571Y-13802143D01*
X21883571Y-13611667D02*
X21902619Y-13602143D01*
X21940714Y-13602143D01*
X21959762Y-13611667D01*
X21969286Y-13621190D01*
X21978810Y-13640238D01*
X21978810Y-13697381D01*
X21969286Y-13716428D01*
X21959762Y-13725952D01*
X21940714Y-13735476D01*
X21902619Y-13735476D01*
X21883571Y-13725952D01*
X22093095Y-13735476D02*
X22074048Y-13725952D01*
X22064524Y-13706905D01*
X22064524Y-13535476D01*
X22255000Y-13735476D02*
X22255000Y-13630714D01*
X22245476Y-13611667D01*
X22226429Y-13602143D01*
X22188333Y-13602143D01*
X22169286Y-13611667D01*
X22255000Y-13725952D02*
X22235952Y-13735476D01*
X22188333Y-13735476D01*
X22169286Y-13725952D01*
X22159762Y-13706905D01*
X22159762Y-13687857D01*
X22169286Y-13668809D01*
X22188333Y-13659286D01*
X22235952Y-13659286D01*
X22255000Y-13649762D01*
X22321667Y-13602143D02*
X22397857Y-13602143D01*
X22350238Y-13535476D02*
X22350238Y-13706905D01*
X22359762Y-13725952D01*
X22378809Y-13735476D01*
X22397857Y-13735476D01*
X22540714Y-13725952D02*
X22521667Y-13735476D01*
X22483571Y-13735476D01*
X22464524Y-13725952D01*
X22455000Y-13706905D01*
X22455000Y-13630714D01*
X22464524Y-13611667D01*
X22483571Y-13602143D01*
X22521667Y-13602143D01*
X22540714Y-13611667D01*
X22550238Y-13630714D01*
X22550238Y-13649762D01*
X22455000Y-13668809D01*
X22721667Y-13735476D02*
X22721667Y-13535476D01*
X22721667Y-13725952D02*
X22702619Y-13735476D01*
X22664524Y-13735476D01*
X22645476Y-13725952D01*
X22635952Y-13716428D01*
X22626428Y-13697381D01*
X22626428Y-13640238D01*
X22635952Y-13621190D01*
X22645476Y-13611667D01*
X22664524Y-13602143D01*
X22702619Y-13602143D01*
X22721667Y-13611667D01*
X22797857Y-13811667D02*
X22807381Y-13802143D01*
X22826428Y-13773571D01*
X22835952Y-13754524D01*
X22845476Y-13725952D01*
X22855000Y-13678333D01*
X22855000Y-13640238D01*
X22845476Y-13592619D01*
X22835952Y-13564048D01*
X22826428Y-13545000D01*
X22807381Y-13516428D01*
X22797857Y-13506905D01*
M02*
