G04 #@! TF.GenerationSoftware,KiCad,Pcbnew,6.0.10+dfsg-1~bpo11+1*
G04 #@! TF.ProjectId,project,70726f6a-6563-4742-9e6b-696361645f70,rev?*
G04 #@! TF.SameCoordinates,Original*
G04 #@! TF.FileFunction,Legend,Top*
G04 #@! TF.FilePolarity,Positive*
%FSLAX46Y46*%
G04 Gerber Fmt 4.6, Leading zero omitted, Abs format (unit mm)*
%MOMM*%
%LPD*%
G01*
G04 APERTURE LIST*
G04 #@! TA.AperFunction,Profile*
%ADD10C,0.100000*%
G04 #@! TD*
%ADD11C,0.150000*%
%ADD12C,0.120000*%
%ADD13C,0.010000*%
%ADD14C,2.200000*%
%ADD15R,1.700000X1.700000*%
%ADD16O,1.700000X1.700000*%
%ADD17C,1.700000*%
G04 APERTURE END LIST*
D10*
X163500000Y-130000000D02*
X181500000Y-130000000D01*
X184500000Y-127000000D02*
X184500000Y-103000000D01*
X160500000Y-103000000D02*
X160500000Y-127000000D01*
X163500000Y-100000000D02*
G75*
G03*
X160500000Y-103000000I0J-3000000D01*
G01*
X160500000Y-127000000D02*
G75*
G03*
X163500000Y-130000000I3000000J0D01*
G01*
X184500000Y-103000000D02*
G75*
G03*
X181500000Y-100000000I-3000000J0D01*
G01*
X181500000Y-100000000D02*
X163500000Y-100000000D01*
X181500000Y-130000000D02*
G75*
G03*
X184500000Y-127000000I0J3000000D01*
G01*
D11*
X168159642Y-106345904D02*
X167892976Y-105964952D01*
X167702500Y-106345904D02*
X167702500Y-105545904D01*
X168007261Y-105545904D01*
X168083452Y-105584000D01*
X168121547Y-105622095D01*
X168159642Y-105698285D01*
X168159642Y-105812571D01*
X168121547Y-105888761D01*
X168083452Y-105926857D01*
X168007261Y-105964952D01*
X167702500Y-105964952D01*
X168464404Y-106307809D02*
X168578690Y-106345904D01*
X168769166Y-106345904D01*
X168845357Y-106307809D01*
X168883452Y-106269714D01*
X168921547Y-106193523D01*
X168921547Y-106117333D01*
X168883452Y-106041142D01*
X168845357Y-106003047D01*
X168769166Y-105964952D01*
X168616785Y-105926857D01*
X168540595Y-105888761D01*
X168502500Y-105850666D01*
X168464404Y-105774476D01*
X168464404Y-105698285D01*
X168502500Y-105622095D01*
X168540595Y-105584000D01*
X168616785Y-105545904D01*
X168807261Y-105545904D01*
X168921547Y-105584000D01*
X169150119Y-105545904D02*
X169607261Y-105545904D01*
X169378690Y-106345904D02*
X169378690Y-105545904D01*
X170369166Y-108921904D02*
X170788214Y-108388571D01*
X170369166Y-108388571D02*
X170788214Y-108921904D01*
X169531071Y-111078857D02*
X169797738Y-111078857D01*
X169912023Y-111497904D02*
X169531071Y-111497904D01*
X169531071Y-110697904D01*
X169912023Y-110697904D01*
X170254880Y-111497904D02*
X170254880Y-110697904D01*
X170712023Y-111497904D01*
X170712023Y-110697904D01*
X170369166Y-114073904D02*
X170788214Y-113540571D01*
X170369166Y-113540571D02*
X170788214Y-114073904D01*
X170369166Y-116649904D02*
X170788214Y-116116571D01*
X170369166Y-116116571D02*
X170788214Y-116649904D01*
X170369166Y-119225904D02*
X170788214Y-118692571D01*
X170369166Y-118692571D02*
X170788214Y-119225904D01*
X170369166Y-121801904D02*
X170788214Y-121268571D01*
X170369166Y-121268571D02*
X170788214Y-121801904D01*
X168921547Y-123577904D02*
X169188214Y-124377904D01*
X169454880Y-123577904D01*
X170064404Y-124339809D02*
X169988214Y-124377904D01*
X169835833Y-124377904D01*
X169759642Y-124339809D01*
X169721547Y-124301714D01*
X169683452Y-124225523D01*
X169683452Y-123996952D01*
X169721547Y-123920761D01*
X169759642Y-123882666D01*
X169835833Y-123844571D01*
X169988214Y-123844571D01*
X170064404Y-123882666D01*
X170750119Y-124339809D02*
X170673928Y-124377904D01*
X170521547Y-124377904D01*
X170445357Y-124339809D01*
X170407261Y-124301714D01*
X170369166Y-124225523D01*
X170369166Y-123996952D01*
X170407261Y-123920761D01*
X170445357Y-123882666D01*
X170521547Y-123844571D01*
X170673928Y-123844571D01*
X170750119Y-123882666D01*
X181173690Y-105545904D02*
X181630833Y-105545904D01*
X181402261Y-106345904D02*
X181402261Y-105545904D01*
X181821309Y-105545904D02*
X182354642Y-106345904D01*
X182354642Y-105545904D02*
X181821309Y-106345904D01*
X181745119Y-108921904D02*
X181478452Y-108540952D01*
X181287976Y-108921904D02*
X181287976Y-108121904D01*
X181592738Y-108121904D01*
X181668928Y-108160000D01*
X181707023Y-108198095D01*
X181745119Y-108274285D01*
X181745119Y-108388571D01*
X181707023Y-108464761D01*
X181668928Y-108502857D01*
X181592738Y-108540952D01*
X181287976Y-108540952D01*
X182011785Y-108121904D02*
X182545119Y-108921904D01*
X182545119Y-108121904D02*
X182011785Y-108921904D01*
X181211785Y-111497904D02*
X181630833Y-110964571D01*
X181211785Y-110964571D02*
X181630833Y-111497904D01*
X181211785Y-114073904D02*
X181630833Y-113540571D01*
X181211785Y-113540571D02*
X181630833Y-114073904D01*
X181287976Y-116649904D02*
X181287976Y-115849904D01*
X181821309Y-115849904D02*
X181973690Y-115849904D01*
X182049880Y-115888000D01*
X182126071Y-115964190D01*
X182164166Y-116116571D01*
X182164166Y-116383238D01*
X182126071Y-116535619D01*
X182049880Y-116611809D01*
X181973690Y-116649904D01*
X181821309Y-116649904D01*
X181745119Y-116611809D01*
X181668928Y-116535619D01*
X181630833Y-116383238D01*
X181630833Y-116116571D01*
X181668928Y-115964190D01*
X181745119Y-115888000D01*
X181821309Y-115849904D01*
X183268928Y-115849904D02*
X183345119Y-115849904D01*
X183421309Y-115888000D01*
X183459404Y-115926095D01*
X183497500Y-116002285D01*
X183535595Y-116154666D01*
X183535595Y-116345142D01*
X183497500Y-116497523D01*
X183459404Y-116573714D01*
X183421309Y-116611809D01*
X183345119Y-116649904D01*
X183268928Y-116649904D01*
X183192738Y-116611809D01*
X183154642Y-116573714D01*
X183116547Y-116497523D01*
X183078452Y-116345142D01*
X183078452Y-116154666D01*
X183116547Y-116002285D01*
X183154642Y-115926095D01*
X183192738Y-115888000D01*
X183268928Y-115849904D01*
X181287976Y-119225904D02*
X181287976Y-118425904D01*
X181821309Y-118425904D02*
X181973690Y-118425904D01*
X182049880Y-118464000D01*
X182126071Y-118540190D01*
X182164166Y-118692571D01*
X182164166Y-118959238D01*
X182126071Y-119111619D01*
X182049880Y-119187809D01*
X181973690Y-119225904D01*
X181821309Y-119225904D01*
X181745119Y-119187809D01*
X181668928Y-119111619D01*
X181630833Y-118959238D01*
X181630833Y-118692571D01*
X181668928Y-118540190D01*
X181745119Y-118464000D01*
X181821309Y-118425904D01*
X183078452Y-118502095D02*
X183116547Y-118464000D01*
X183192738Y-118425904D01*
X183383214Y-118425904D01*
X183459404Y-118464000D01*
X183497500Y-118502095D01*
X183535595Y-118578285D01*
X183535595Y-118654476D01*
X183497500Y-118768761D01*
X183040357Y-119225904D01*
X183535595Y-119225904D01*
X181211785Y-121801904D02*
X181630833Y-121268571D01*
X181211785Y-121268571D02*
X181630833Y-121801904D01*
X181707023Y-123616000D02*
X181630833Y-123577904D01*
X181516547Y-123577904D01*
X181402261Y-123616000D01*
X181326071Y-123692190D01*
X181287976Y-123768380D01*
X181249880Y-123920761D01*
X181249880Y-124035047D01*
X181287976Y-124187428D01*
X181326071Y-124263619D01*
X181402261Y-124339809D01*
X181516547Y-124377904D01*
X181592738Y-124377904D01*
X181707023Y-124339809D01*
X181745119Y-124301714D01*
X181745119Y-124035047D01*
X181592738Y-124035047D01*
X182087976Y-124377904D02*
X182087976Y-123577904D01*
X182545119Y-124377904D01*
X182545119Y-123577904D01*
X182926071Y-124377904D02*
X182926071Y-123577904D01*
X183116547Y-123577904D01*
X183230833Y-123616000D01*
X183307023Y-123692190D01*
X183345119Y-123768380D01*
X183383214Y-123920761D01*
X183383214Y-124035047D01*
X183345119Y-124187428D01*
X183307023Y-124263619D01*
X183230833Y-124339809D01*
X183116547Y-124377904D01*
X182926071Y-124377904D01*
G36*
X161380705Y-105557074D02*
G01*
X160954743Y-105325237D01*
X160978538Y-104353370D01*
X161002334Y-103381503D01*
X161805238Y-102940311D01*
X162643704Y-103396661D01*
X163497560Y-102925667D01*
X163499492Y-102460000D01*
X163501425Y-101994334D01*
X163926076Y-101769609D01*
X164350728Y-101544885D01*
X165616877Y-102235276D01*
X166883025Y-102925667D01*
X166884846Y-103437962D01*
X166886667Y-103950258D01*
X166501301Y-104137483D01*
X166290526Y-104255767D01*
X166170184Y-104354901D01*
X166158544Y-104393651D01*
X166256204Y-104468030D01*
X166451559Y-104573728D01*
X166543910Y-104617156D01*
X166886667Y-104771718D01*
X166885955Y-105753692D01*
X166885242Y-106735667D01*
X166458732Y-106961382D01*
X166032222Y-107187098D01*
X165676278Y-106983569D01*
X165455571Y-106864108D01*
X165296662Y-106790367D01*
X165256834Y-106779020D01*
X165221214Y-106854803D01*
X165197798Y-107050556D01*
X165192499Y-107222500D01*
X165191665Y-107667000D01*
X164409333Y-108090334D01*
X164072241Y-108267716D01*
X163781728Y-108411355D01*
X163575183Y-108503285D01*
X163500000Y-108527314D01*
X163376836Y-108493503D01*
X163144231Y-108391419D01*
X162838961Y-108238198D01*
X162591498Y-108103980D01*
X161809997Y-107667000D01*
X161807220Y-106100667D01*
X162399334Y-106100667D01*
X162925310Y-106100667D01*
X162864533Y-105317500D01*
X162843533Y-104984666D01*
X162837011Y-104733428D01*
X162845326Y-104597700D01*
X162856756Y-104584934D01*
X162908078Y-104684970D01*
X162993843Y-104901329D01*
X163096411Y-105189211D01*
X163106821Y-105219934D01*
X163246591Y-105583479D01*
X163370353Y-105781514D01*
X163486937Y-105816032D01*
X163605175Y-105689025D01*
X163733899Y-105402484D01*
X163747907Y-105364532D01*
X163889806Y-104983806D01*
X163984588Y-104762484D01*
X164039083Y-104699457D01*
X164060120Y-104793618D01*
X164054529Y-105043861D01*
X164038020Y-105317500D01*
X163986159Y-106100667D01*
X164516000Y-106100667D01*
X164516000Y-103814667D01*
X164234573Y-103814667D01*
X164092127Y-103821744D01*
X163994874Y-103865133D01*
X163917781Y-103978071D01*
X163835814Y-104193795D01*
X163752360Y-104454896D01*
X163651022Y-104760140D01*
X163562012Y-104996519D01*
X163501326Y-105122357D01*
X163492675Y-105131527D01*
X163440481Y-105074492D01*
X163351863Y-104890977D01*
X163242718Y-104615550D01*
X163198234Y-104491298D01*
X163080918Y-104162658D01*
X162993670Y-103962523D01*
X162912147Y-103859046D01*
X162812003Y-103820379D01*
X162681013Y-103814667D01*
X162399334Y-103814667D01*
X162399334Y-106100667D01*
X161807220Y-106100667D01*
X161806667Y-105788912D01*
X161380705Y-105557074D01*
G37*
G36*
X168016309Y-116654373D02*
G01*
X168115428Y-116576388D01*
X168217160Y-116540669D01*
X168346145Y-116519238D01*
X168502381Y-116512094D01*
X168657295Y-116519238D01*
X168785485Y-116540669D01*
X168886953Y-116576388D01*
X168986073Y-116654373D01*
X169019112Y-116759744D01*
X168986073Y-116866602D01*
X168886953Y-116944291D01*
X168785485Y-116979348D01*
X168657295Y-117000382D01*
X168502381Y-117007394D01*
X168346145Y-117000382D01*
X168217160Y-116979348D01*
X168115428Y-116944291D01*
X168016309Y-116866602D01*
X167984005Y-116762125D01*
X168369031Y-116762125D01*
X168415466Y-116856184D01*
X168526194Y-116893094D01*
X168638112Y-116856184D01*
X168685737Y-116762125D01*
X168638112Y-116664494D01*
X168526194Y-116628775D01*
X168415466Y-116664494D01*
X168369031Y-116762125D01*
X167984005Y-116762125D01*
X167983269Y-116759744D01*
X168016309Y-116654373D01*
G37*
G36*
X167551011Y-111362986D02*
G01*
X167606071Y-111181474D01*
X167695486Y-111014192D01*
X167815817Y-110867568D01*
X167962441Y-110747237D01*
X168129723Y-110657823D01*
X168311234Y-110602762D01*
X168500000Y-110584170D01*
X168688766Y-110602762D01*
X168870277Y-110657823D01*
X169037559Y-110747237D01*
X169184183Y-110867568D01*
X169304514Y-111014192D01*
X169393929Y-111181474D01*
X169448989Y-111362986D01*
X169467581Y-111551752D01*
X169467581Y-118448248D01*
X169448989Y-118637014D01*
X169393929Y-118818526D01*
X169304514Y-118985808D01*
X169184183Y-119132432D01*
X169037559Y-119252763D01*
X168870277Y-119342177D01*
X168688766Y-119397238D01*
X168500000Y-119415830D01*
X168311234Y-119397238D01*
X168129723Y-119342177D01*
X167962441Y-119252763D01*
X167815817Y-119132432D01*
X167695486Y-118985808D01*
X167606071Y-118818526D01*
X167551011Y-118637014D01*
X167532419Y-118448248D01*
X167532419Y-118448050D01*
X167761812Y-118448050D01*
X168004700Y-118448050D01*
X168004700Y-118155156D01*
X169235806Y-118155156D01*
X169235806Y-117955131D01*
X169142937Y-117852738D01*
X169057212Y-117726531D01*
X168983394Y-117593181D01*
X168928625Y-117469356D01*
X168685737Y-117564606D01*
X168744078Y-117709863D01*
X168828612Y-117862263D01*
X168004700Y-117862263D01*
X168004700Y-117552700D01*
X167761812Y-117552700D01*
X167761812Y-118448050D01*
X167532419Y-118448050D01*
X167532419Y-116759744D01*
X167730856Y-116759744D01*
X167752023Y-116913202D01*
X167815523Y-117040202D01*
X167921356Y-117140744D01*
X168029108Y-117198043D01*
X168161862Y-117238970D01*
X168319620Y-117263527D01*
X168502381Y-117271713D01*
X168684026Y-117263527D01*
X168840816Y-117238970D01*
X168972753Y-117198043D01*
X169079834Y-117140744D01*
X169185006Y-117040202D01*
X169248109Y-116913202D01*
X169269144Y-116759744D01*
X169247977Y-116608667D01*
X169184477Y-116482460D01*
X169078644Y-116381125D01*
X168971190Y-116322784D01*
X168839328Y-116281113D01*
X168683059Y-116256109D01*
X168502381Y-116247775D01*
X168319620Y-116255961D01*
X168161862Y-116280517D01*
X168029108Y-116321445D01*
X167921356Y-116378744D01*
X167815523Y-116479285D01*
X167752023Y-116606285D01*
X167730856Y-116759744D01*
X167532419Y-116759744D01*
X167532419Y-115895350D01*
X168228537Y-115895350D01*
X168516669Y-115895350D01*
X168516669Y-115242888D01*
X168228537Y-115242888D01*
X168228537Y-115895350D01*
X167532419Y-115895350D01*
X167532419Y-114204663D01*
X167761812Y-114204663D01*
X168259494Y-114204663D01*
X168259494Y-114309438D01*
X168272591Y-114485518D01*
X168311881Y-114632758D01*
X168377366Y-114751159D01*
X168472219Y-114837810D01*
X168599616Y-114889801D01*
X168759556Y-114907131D01*
X168917909Y-114889933D01*
X169043719Y-114838340D01*
X169136984Y-114752350D01*
X169201146Y-114635140D01*
X169239643Y-114489883D01*
X169252475Y-114316581D01*
X169250094Y-114223713D01*
X169244141Y-114116556D01*
X169233425Y-114008209D01*
X169216756Y-113911769D01*
X167761812Y-113911769D01*
X167761812Y-114204663D01*
X167532419Y-114204663D01*
X167532419Y-113145006D01*
X167730856Y-113145006D01*
X167743424Y-113312091D01*
X167781127Y-113448219D01*
X167843966Y-113553391D01*
X167980590Y-113654296D01*
X168164244Y-113687931D01*
X168275270Y-113677811D01*
X168365459Y-113647450D01*
X168498809Y-113543866D01*
X168584534Y-113405753D01*
X168642875Y-113261688D01*
X168678594Y-113170009D01*
X168722647Y-113086666D01*
X168779797Y-113025944D01*
X168854806Y-113002131D01*
X168948733Y-113028060D01*
X169005090Y-113105848D01*
X169023875Y-113235494D01*
X169000062Y-113403372D01*
X168942912Y-113535531D01*
X169169131Y-113621256D01*
X169238187Y-113450997D01*
X169261405Y-113341162D01*
X169269144Y-113214063D01*
X169256179Y-113068145D01*
X169217285Y-112944717D01*
X169152462Y-112843778D01*
X169013159Y-112742873D01*
X168828612Y-112709238D01*
X168653591Y-112747338D01*
X168535719Y-112843778D01*
X168457137Y-112973556D01*
X168402369Y-113111669D01*
X168360697Y-113211681D01*
X168310691Y-113302169D01*
X168247587Y-113368844D01*
X168166625Y-113395038D01*
X168096378Y-113384322D01*
X168034466Y-113345031D01*
X167991603Y-113267641D01*
X167976125Y-113145006D01*
X167984459Y-113026241D01*
X168009462Y-112927122D01*
X168080900Y-112773531D01*
X167842775Y-112687806D01*
X167770147Y-112852113D01*
X167740679Y-112980105D01*
X167730856Y-113145006D01*
X167532419Y-113145006D01*
X167532419Y-112497306D01*
X167761812Y-112497306D01*
X168004700Y-112497306D01*
X168004700Y-111844844D01*
X168419038Y-111844844D01*
X168419038Y-112366338D01*
X168661925Y-112366338D01*
X168661925Y-111844844D01*
X168992919Y-111844844D01*
X168992919Y-112444919D01*
X169235806Y-112444919D01*
X169235806Y-111551950D01*
X167761812Y-111551950D01*
X167761812Y-112497306D01*
X167532419Y-112497306D01*
X167532419Y-111551752D01*
X167551011Y-111362986D01*
G37*
G36*
X168996491Y-114277291D02*
G01*
X168997681Y-114349919D01*
X168984287Y-114454991D01*
X168944103Y-114536847D01*
X168871773Y-114589532D01*
X168761937Y-114607094D01*
X168646149Y-114589234D01*
X168570247Y-114535656D01*
X168528277Y-114446955D01*
X168514287Y-114323725D01*
X168514287Y-114204663D01*
X168990537Y-114204663D01*
X168996491Y-114277291D01*
G37*
D12*
X164480000Y-120130000D02*
X164480000Y-117530000D01*
X167080000Y-120130000D02*
X167080000Y-109850000D01*
X164480000Y-117530000D02*
X161880000Y-117530000D01*
X163210000Y-120130000D02*
X161880000Y-120130000D01*
X161880000Y-117530000D02*
X161880000Y-109850000D01*
X161880000Y-120130000D02*
X161880000Y-118800000D01*
X167080000Y-120130000D02*
X164480000Y-120130000D01*
X167080000Y-109850000D02*
X161880000Y-109850000D01*
G36*
X165055814Y-122468931D02*
G01*
X165139635Y-122913555D01*
X165448920Y-123041053D01*
X165758206Y-123168551D01*
X166129246Y-122916246D01*
X166233157Y-122845996D01*
X166327087Y-122783272D01*
X166406652Y-122730938D01*
X166467470Y-122691857D01*
X166505157Y-122668893D01*
X166515421Y-122663942D01*
X166533910Y-122676676D01*
X166573420Y-122711882D01*
X166629522Y-122765062D01*
X166697787Y-122831718D01*
X166773786Y-122907354D01*
X166853092Y-122987472D01*
X166931275Y-123067574D01*
X167003907Y-123143164D01*
X167066559Y-123209745D01*
X167114803Y-123262818D01*
X167144210Y-123297887D01*
X167151241Y-123309623D01*
X167141123Y-123331260D01*
X167112759Y-123378662D01*
X167069129Y-123447193D01*
X167013218Y-123532215D01*
X166948006Y-123629093D01*
X166910219Y-123684350D01*
X166841343Y-123785248D01*
X166780140Y-123876299D01*
X166729578Y-123952970D01*
X166692628Y-124010728D01*
X166672258Y-124045043D01*
X166669197Y-124052254D01*
X166676136Y-124072748D01*
X166695051Y-124120513D01*
X166723087Y-124188832D01*
X166757391Y-124270989D01*
X166795109Y-124360270D01*
X166833387Y-124449958D01*
X166869370Y-124533338D01*
X166900206Y-124603694D01*
X166923039Y-124654310D01*
X166935017Y-124678471D01*
X166935724Y-124679422D01*
X166954531Y-124684036D01*
X167004618Y-124694328D01*
X167080793Y-124709287D01*
X167177865Y-124727901D01*
X167290643Y-124749159D01*
X167356442Y-124761418D01*
X167476950Y-124784362D01*
X167585797Y-124806195D01*
X167677476Y-124825722D01*
X167746481Y-124841748D01*
X167787304Y-124853079D01*
X167795511Y-124856674D01*
X167803548Y-124881006D01*
X167810033Y-124935959D01*
X167814970Y-125015108D01*
X167818364Y-125112026D01*
X167820218Y-125220287D01*
X167820538Y-125333465D01*
X167819327Y-125445135D01*
X167816590Y-125548868D01*
X167812331Y-125638241D01*
X167806555Y-125706826D01*
X167799267Y-125748197D01*
X167794895Y-125756810D01*
X167768764Y-125767133D01*
X167713393Y-125781892D01*
X167636107Y-125799352D01*
X167544230Y-125817780D01*
X167512158Y-125823741D01*
X167357524Y-125852066D01*
X167235375Y-125874876D01*
X167141673Y-125893080D01*
X167072384Y-125907583D01*
X167023471Y-125919292D01*
X166990897Y-125929115D01*
X166970628Y-125937956D01*
X166958626Y-125946724D01*
X166956947Y-125948457D01*
X166940184Y-125976371D01*
X166914614Y-126030695D01*
X166882788Y-126104777D01*
X166847260Y-126191965D01*
X166810583Y-126285608D01*
X166775311Y-126379052D01*
X166743996Y-126465647D01*
X166719193Y-126538740D01*
X166703454Y-126591678D01*
X166699332Y-126617811D01*
X166699676Y-126618726D01*
X166713641Y-126640086D01*
X166745322Y-126687084D01*
X166791391Y-126754827D01*
X166848518Y-126838423D01*
X166913373Y-126932982D01*
X166931843Y-126959854D01*
X166997699Y-127057275D01*
X167055650Y-127146163D01*
X167102538Y-127221412D01*
X167135207Y-127277920D01*
X167150500Y-127310581D01*
X167151241Y-127314593D01*
X167138392Y-127335684D01*
X167102888Y-127377464D01*
X167049293Y-127435445D01*
X166982171Y-127505135D01*
X166906087Y-127582045D01*
X166825604Y-127661683D01*
X166745287Y-127739561D01*
X166669699Y-127811186D01*
X166603405Y-127872070D01*
X166550969Y-127917721D01*
X166516955Y-127943650D01*
X166507545Y-127947883D01*
X166485643Y-127937912D01*
X166440800Y-127911020D01*
X166380321Y-127871736D01*
X166333789Y-127840117D01*
X166249475Y-127782098D01*
X166149626Y-127713784D01*
X166049473Y-127645579D01*
X165995627Y-127609075D01*
X165813371Y-127485800D01*
X165660381Y-127568520D01*
X165590682Y-127604759D01*
X165531414Y-127632926D01*
X165491311Y-127648991D01*
X165481103Y-127651226D01*
X165468829Y-127634722D01*
X165444613Y-127588082D01*
X165410263Y-127515609D01*
X165367588Y-127421606D01*
X165318394Y-127310374D01*
X165264490Y-127186215D01*
X165207684Y-127053432D01*
X165149782Y-126916327D01*
X165092593Y-126779202D01*
X165037924Y-126646358D01*
X164987584Y-126522098D01*
X164943380Y-126410725D01*
X164907119Y-126316539D01*
X164880609Y-126243844D01*
X164865658Y-126196941D01*
X164863254Y-126180833D01*
X164882311Y-126160286D01*
X164924036Y-126126933D01*
X164979706Y-126087702D01*
X164984378Y-126084599D01*
X165128264Y-125969423D01*
X165244283Y-125835053D01*
X165331430Y-125685784D01*
X165388699Y-125525913D01*
X165415086Y-125359737D01*
X165409585Y-125191552D01*
X165371190Y-125025655D01*
X165298895Y-124866342D01*
X165277626Y-124831487D01*
X165166996Y-124690737D01*
X165036302Y-124577714D01*
X164890064Y-124493003D01*
X164732808Y-124437194D01*
X164569057Y-124410874D01*
X164403333Y-124414630D01*
X164240162Y-124449050D01*
X164084065Y-124514723D01*
X163939567Y-124612235D01*
X163894869Y-124651813D01*
X163781112Y-124775703D01*
X163698218Y-124906124D01*
X163641356Y-125052315D01*
X163609687Y-125197088D01*
X163601869Y-125359860D01*
X163627938Y-125523440D01*
X163685245Y-125682298D01*
X163771144Y-125830906D01*
X163882986Y-125963735D01*
X164018123Y-126075256D01*
X164035883Y-126087011D01*
X164092150Y-126125508D01*
X164134923Y-126158863D01*
X164155372Y-126180160D01*
X164155669Y-126180833D01*
X164151279Y-126203871D01*
X164133876Y-126256157D01*
X164105268Y-126333390D01*
X164067265Y-126431268D01*
X164021674Y-126545491D01*
X163970303Y-126671758D01*
X163914962Y-126805767D01*
X163857458Y-126943218D01*
X163799601Y-127079808D01*
X163743198Y-127211237D01*
X163690058Y-127333205D01*
X163641990Y-127441409D01*
X163600801Y-127531549D01*
X163568301Y-127599323D01*
X163546297Y-127640430D01*
X163537436Y-127651226D01*
X163510360Y-127642819D01*
X163459697Y-127620272D01*
X163394183Y-127587613D01*
X163358159Y-127568520D01*
X163205168Y-127485800D01*
X163022912Y-127609075D01*
X162929875Y-127672228D01*
X162828015Y-127741727D01*
X162732562Y-127807165D01*
X162684750Y-127840117D01*
X162617505Y-127885273D01*
X162560564Y-127921057D01*
X162521354Y-127942938D01*
X162508619Y-127947563D01*
X162490083Y-127935085D01*
X162449059Y-127900252D01*
X162389525Y-127846678D01*
X162315458Y-127777983D01*
X162230835Y-127697781D01*
X162177315Y-127646286D01*
X162083681Y-127554286D01*
X162002759Y-127471999D01*
X161937823Y-127402945D01*
X161892142Y-127350644D01*
X161868989Y-127318616D01*
X161866768Y-127312116D01*
X161877076Y-127287394D01*
X161905561Y-127237405D01*
X161949063Y-127167212D01*
X162004423Y-127081875D01*
X162068480Y-126986456D01*
X162086697Y-126959854D01*
X162153073Y-126863167D01*
X162212622Y-126776117D01*
X162262016Y-126703595D01*
X162297925Y-126650493D01*
X162317019Y-126621703D01*
X162318864Y-126618726D01*
X162316105Y-126595782D01*
X162301462Y-126545336D01*
X162277487Y-126474041D01*
X162246734Y-126388547D01*
X162211756Y-126295507D01*
X162175107Y-126201574D01*
X162139339Y-126113399D01*
X162107006Y-126037634D01*
X162080662Y-125980931D01*
X162062858Y-125949943D01*
X162061593Y-125948457D01*
X162050706Y-125939601D01*
X162032318Y-125930843D01*
X162002394Y-125921277D01*
X161956897Y-125909996D01*
X161891791Y-125896093D01*
X161803039Y-125878663D01*
X161686607Y-125856798D01*
X161538458Y-125829591D01*
X161506382Y-125823741D01*
X161411314Y-125805374D01*
X161328435Y-125787405D01*
X161265070Y-125771569D01*
X161228542Y-125759600D01*
X161223644Y-125756810D01*
X161215573Y-125732072D01*
X161209013Y-125676790D01*
X161203967Y-125597389D01*
X161200441Y-125500296D01*
X161198439Y-125391938D01*
X161197964Y-125278740D01*
X161199023Y-125167128D01*
X161201618Y-125063529D01*
X161205754Y-124974368D01*
X161211437Y-124906072D01*
X161218669Y-124865066D01*
X161223029Y-124856674D01*
X161247302Y-124848208D01*
X161302574Y-124834435D01*
X161383338Y-124816550D01*
X161484088Y-124795748D01*
X161599317Y-124773223D01*
X161662098Y-124761418D01*
X161781213Y-124739151D01*
X161887435Y-124718979D01*
X161975573Y-124701915D01*
X162040434Y-124688969D01*
X162076826Y-124681155D01*
X162082816Y-124679422D01*
X162092939Y-124659890D01*
X162114338Y-124612843D01*
X162144161Y-124545003D01*
X162179555Y-124463091D01*
X162217668Y-124373828D01*
X162255647Y-124283935D01*
X162290640Y-124200135D01*
X162319794Y-124129147D01*
X162340257Y-124077694D01*
X162349177Y-124052497D01*
X162349343Y-124051396D01*
X162339231Y-124031519D01*
X162310883Y-123985777D01*
X162267277Y-123918717D01*
X162211394Y-123834884D01*
X162146213Y-123738826D01*
X162108321Y-123683650D01*
X162039275Y-123582481D01*
X161977950Y-123490630D01*
X161927337Y-123412744D01*
X161890429Y-123353469D01*
X161870218Y-123317451D01*
X161867299Y-123309377D01*
X161879847Y-123290584D01*
X161914537Y-123250457D01*
X161966937Y-123193493D01*
X162032616Y-123124185D01*
X162107144Y-123047031D01*
X162186087Y-122966525D01*
X162265017Y-122887163D01*
X162339500Y-122813440D01*
X162405106Y-122749852D01*
X162457404Y-122700894D01*
X162491961Y-122671061D01*
X162503522Y-122663942D01*
X162522346Y-122673953D01*
X162567369Y-122702078D01*
X162634213Y-122745454D01*
X162718501Y-122801218D01*
X162815856Y-122866506D01*
X162889293Y-122916246D01*
X163260333Y-123168551D01*
X163878905Y-122913555D01*
X163962725Y-122468931D01*
X164046546Y-122024307D01*
X164971994Y-122024307D01*
X165055814Y-122468931D01*
G37*
D13*
X165055814Y-122468931D02*
X165139635Y-122913555D01*
X165448920Y-123041053D01*
X165758206Y-123168551D01*
X166129246Y-122916246D01*
X166233157Y-122845996D01*
X166327087Y-122783272D01*
X166406652Y-122730938D01*
X166467470Y-122691857D01*
X166505157Y-122668893D01*
X166515421Y-122663942D01*
X166533910Y-122676676D01*
X166573420Y-122711882D01*
X166629522Y-122765062D01*
X166697787Y-122831718D01*
X166773786Y-122907354D01*
X166853092Y-122987472D01*
X166931275Y-123067574D01*
X167003907Y-123143164D01*
X167066559Y-123209745D01*
X167114803Y-123262818D01*
X167144210Y-123297887D01*
X167151241Y-123309623D01*
X167141123Y-123331260D01*
X167112759Y-123378662D01*
X167069129Y-123447193D01*
X167013218Y-123532215D01*
X166948006Y-123629093D01*
X166910219Y-123684350D01*
X166841343Y-123785248D01*
X166780140Y-123876299D01*
X166729578Y-123952970D01*
X166692628Y-124010728D01*
X166672258Y-124045043D01*
X166669197Y-124052254D01*
X166676136Y-124072748D01*
X166695051Y-124120513D01*
X166723087Y-124188832D01*
X166757391Y-124270989D01*
X166795109Y-124360270D01*
X166833387Y-124449958D01*
X166869370Y-124533338D01*
X166900206Y-124603694D01*
X166923039Y-124654310D01*
X166935017Y-124678471D01*
X166935724Y-124679422D01*
X166954531Y-124684036D01*
X167004618Y-124694328D01*
X167080793Y-124709287D01*
X167177865Y-124727901D01*
X167290643Y-124749159D01*
X167356442Y-124761418D01*
X167476950Y-124784362D01*
X167585797Y-124806195D01*
X167677476Y-124825722D01*
X167746481Y-124841748D01*
X167787304Y-124853079D01*
X167795511Y-124856674D01*
X167803548Y-124881006D01*
X167810033Y-124935959D01*
X167814970Y-125015108D01*
X167818364Y-125112026D01*
X167820218Y-125220287D01*
X167820538Y-125333465D01*
X167819327Y-125445135D01*
X167816590Y-125548868D01*
X167812331Y-125638241D01*
X167806555Y-125706826D01*
X167799267Y-125748197D01*
X167794895Y-125756810D01*
X167768764Y-125767133D01*
X167713393Y-125781892D01*
X167636107Y-125799352D01*
X167544230Y-125817780D01*
X167512158Y-125823741D01*
X167357524Y-125852066D01*
X167235375Y-125874876D01*
X167141673Y-125893080D01*
X167072384Y-125907583D01*
X167023471Y-125919292D01*
X166990897Y-125929115D01*
X166970628Y-125937956D01*
X166958626Y-125946724D01*
X166956947Y-125948457D01*
X166940184Y-125976371D01*
X166914614Y-126030695D01*
X166882788Y-126104777D01*
X166847260Y-126191965D01*
X166810583Y-126285608D01*
X166775311Y-126379052D01*
X166743996Y-126465647D01*
X166719193Y-126538740D01*
X166703454Y-126591678D01*
X166699332Y-126617811D01*
X166699676Y-126618726D01*
X166713641Y-126640086D01*
X166745322Y-126687084D01*
X166791391Y-126754827D01*
X166848518Y-126838423D01*
X166913373Y-126932982D01*
X166931843Y-126959854D01*
X166997699Y-127057275D01*
X167055650Y-127146163D01*
X167102538Y-127221412D01*
X167135207Y-127277920D01*
X167150500Y-127310581D01*
X167151241Y-127314593D01*
X167138392Y-127335684D01*
X167102888Y-127377464D01*
X167049293Y-127435445D01*
X166982171Y-127505135D01*
X166906087Y-127582045D01*
X166825604Y-127661683D01*
X166745287Y-127739561D01*
X166669699Y-127811186D01*
X166603405Y-127872070D01*
X166550969Y-127917721D01*
X166516955Y-127943650D01*
X166507545Y-127947883D01*
X166485643Y-127937912D01*
X166440800Y-127911020D01*
X166380321Y-127871736D01*
X166333789Y-127840117D01*
X166249475Y-127782098D01*
X166149626Y-127713784D01*
X166049473Y-127645579D01*
X165995627Y-127609075D01*
X165813371Y-127485800D01*
X165660381Y-127568520D01*
X165590682Y-127604759D01*
X165531414Y-127632926D01*
X165491311Y-127648991D01*
X165481103Y-127651226D01*
X165468829Y-127634722D01*
X165444613Y-127588082D01*
X165410263Y-127515609D01*
X165367588Y-127421606D01*
X165318394Y-127310374D01*
X165264490Y-127186215D01*
X165207684Y-127053432D01*
X165149782Y-126916327D01*
X165092593Y-126779202D01*
X165037924Y-126646358D01*
X164987584Y-126522098D01*
X164943380Y-126410725D01*
X164907119Y-126316539D01*
X164880609Y-126243844D01*
X164865658Y-126196941D01*
X164863254Y-126180833D01*
X164882311Y-126160286D01*
X164924036Y-126126933D01*
X164979706Y-126087702D01*
X164984378Y-126084599D01*
X165128264Y-125969423D01*
X165244283Y-125835053D01*
X165331430Y-125685784D01*
X165388699Y-125525913D01*
X165415086Y-125359737D01*
X165409585Y-125191552D01*
X165371190Y-125025655D01*
X165298895Y-124866342D01*
X165277626Y-124831487D01*
X165166996Y-124690737D01*
X165036302Y-124577714D01*
X164890064Y-124493003D01*
X164732808Y-124437194D01*
X164569057Y-124410874D01*
X164403333Y-124414630D01*
X164240162Y-124449050D01*
X164084065Y-124514723D01*
X163939567Y-124612235D01*
X163894869Y-124651813D01*
X163781112Y-124775703D01*
X163698218Y-124906124D01*
X163641356Y-125052315D01*
X163609687Y-125197088D01*
X163601869Y-125359860D01*
X163627938Y-125523440D01*
X163685245Y-125682298D01*
X163771144Y-125830906D01*
X163882986Y-125963735D01*
X164018123Y-126075256D01*
X164035883Y-126087011D01*
X164092150Y-126125508D01*
X164134923Y-126158863D01*
X164155372Y-126180160D01*
X164155669Y-126180833D01*
X164151279Y-126203871D01*
X164133876Y-126256157D01*
X164105268Y-126333390D01*
X164067265Y-126431268D01*
X164021674Y-126545491D01*
X163970303Y-126671758D01*
X163914962Y-126805767D01*
X163857458Y-126943218D01*
X163799601Y-127079808D01*
X163743198Y-127211237D01*
X163690058Y-127333205D01*
X163641990Y-127441409D01*
X163600801Y-127531549D01*
X163568301Y-127599323D01*
X163546297Y-127640430D01*
X163537436Y-127651226D01*
X163510360Y-127642819D01*
X163459697Y-127620272D01*
X163394183Y-127587613D01*
X163358159Y-127568520D01*
X163205168Y-127485800D01*
X163022912Y-127609075D01*
X162929875Y-127672228D01*
X162828015Y-127741727D01*
X162732562Y-127807165D01*
X162684750Y-127840117D01*
X162617505Y-127885273D01*
X162560564Y-127921057D01*
X162521354Y-127942938D01*
X162508619Y-127947563D01*
X162490083Y-127935085D01*
X162449059Y-127900252D01*
X162389525Y-127846678D01*
X162315458Y-127777983D01*
X162230835Y-127697781D01*
X162177315Y-127646286D01*
X162083681Y-127554286D01*
X162002759Y-127471999D01*
X161937823Y-127402945D01*
X161892142Y-127350644D01*
X161868989Y-127318616D01*
X161866768Y-127312116D01*
X161877076Y-127287394D01*
X161905561Y-127237405D01*
X161949063Y-127167212D01*
X162004423Y-127081875D01*
X162068480Y-126986456D01*
X162086697Y-126959854D01*
X162153073Y-126863167D01*
X162212622Y-126776117D01*
X162262016Y-126703595D01*
X162297925Y-126650493D01*
X162317019Y-126621703D01*
X162318864Y-126618726D01*
X162316105Y-126595782D01*
X162301462Y-126545336D01*
X162277487Y-126474041D01*
X162246734Y-126388547D01*
X162211756Y-126295507D01*
X162175107Y-126201574D01*
X162139339Y-126113399D01*
X162107006Y-126037634D01*
X162080662Y-125980931D01*
X162062858Y-125949943D01*
X162061593Y-125948457D01*
X162050706Y-125939601D01*
X162032318Y-125930843D01*
X162002394Y-125921277D01*
X161956897Y-125909996D01*
X161891791Y-125896093D01*
X161803039Y-125878663D01*
X161686607Y-125856798D01*
X161538458Y-125829591D01*
X161506382Y-125823741D01*
X161411314Y-125805374D01*
X161328435Y-125787405D01*
X161265070Y-125771569D01*
X161228542Y-125759600D01*
X161223644Y-125756810D01*
X161215573Y-125732072D01*
X161209013Y-125676790D01*
X161203967Y-125597389D01*
X161200441Y-125500296D01*
X161198439Y-125391938D01*
X161197964Y-125278740D01*
X161199023Y-125167128D01*
X161201618Y-125063529D01*
X161205754Y-124974368D01*
X161211437Y-124906072D01*
X161218669Y-124865066D01*
X161223029Y-124856674D01*
X161247302Y-124848208D01*
X161302574Y-124834435D01*
X161383338Y-124816550D01*
X161484088Y-124795748D01*
X161599317Y-124773223D01*
X161662098Y-124761418D01*
X161781213Y-124739151D01*
X161887435Y-124718979D01*
X161975573Y-124701915D01*
X162040434Y-124688969D01*
X162076826Y-124681155D01*
X162082816Y-124679422D01*
X162092939Y-124659890D01*
X162114338Y-124612843D01*
X162144161Y-124545003D01*
X162179555Y-124463091D01*
X162217668Y-124373828D01*
X162255647Y-124283935D01*
X162290640Y-124200135D01*
X162319794Y-124129147D01*
X162340257Y-124077694D01*
X162349177Y-124052497D01*
X162349343Y-124051396D01*
X162339231Y-124031519D01*
X162310883Y-123985777D01*
X162267277Y-123918717D01*
X162211394Y-123834884D01*
X162146213Y-123738826D01*
X162108321Y-123683650D01*
X162039275Y-123582481D01*
X161977950Y-123490630D01*
X161927337Y-123412744D01*
X161890429Y-123353469D01*
X161870218Y-123317451D01*
X161867299Y-123309377D01*
X161879847Y-123290584D01*
X161914537Y-123250457D01*
X161966937Y-123193493D01*
X162032616Y-123124185D01*
X162107144Y-123047031D01*
X162186087Y-122966525D01*
X162265017Y-122887163D01*
X162339500Y-122813440D01*
X162405106Y-122749852D01*
X162457404Y-122700894D01*
X162491961Y-122671061D01*
X162503522Y-122663942D01*
X162522346Y-122673953D01*
X162567369Y-122702078D01*
X162634213Y-122745454D01*
X162718501Y-122801218D01*
X162815856Y-122866506D01*
X162889293Y-122916246D01*
X163260333Y-123168551D01*
X163878905Y-122913555D01*
X163962725Y-122468931D01*
X164046546Y-122024307D01*
X164971994Y-122024307D01*
X165055814Y-122468931D01*
D12*
X171457500Y-112950000D02*
X172767500Y-112950000D01*
X171457500Y-129100000D02*
X171457500Y-100900000D01*
X172767500Y-112950000D02*
X172767500Y-102200000D01*
X172767500Y-127800000D02*
X172767500Y-117050000D01*
X172767500Y-102200000D02*
X179267500Y-102200000D01*
X180577500Y-100900000D02*
X180577500Y-129100000D01*
X180577500Y-129100000D02*
X171457500Y-129100000D01*
X170067500Y-106610000D02*
X171067500Y-106110000D01*
X179267500Y-127800000D02*
X172767500Y-127800000D01*
X170067500Y-105610000D02*
X170067500Y-106610000D01*
X171457500Y-100900000D02*
X180577500Y-100900000D01*
X179267500Y-102200000D02*
X179267500Y-127800000D01*
X172767500Y-117050000D02*
X172767500Y-117050000D01*
X172767500Y-117050000D02*
X171457500Y-117050000D01*
X171067500Y-106110000D02*
X170067500Y-105610000D01*
%LPC*%
D14*
X168500000Y-127000000D03*
D15*
X163210000Y-118800000D03*
D16*
X163210000Y-116260000D03*
X163210000Y-113720000D03*
X163210000Y-111180000D03*
X165750000Y-111180000D03*
X165750000Y-113720000D03*
X165750000Y-116260000D03*
X165750000Y-118800000D03*
D14*
X168500000Y-103000000D03*
G36*
G01*
X173897500Y-106710000D02*
X173897500Y-105510000D01*
G75*
G02*
X174147500Y-105260000I250000J0D01*
G01*
X175347500Y-105260000D01*
G75*
G02*
X175597500Y-105510000I0J-250000D01*
G01*
X175597500Y-106710000D01*
G75*
G02*
X175347500Y-106960000I-250000J0D01*
G01*
X174147500Y-106960000D01*
G75*
G02*
X173897500Y-106710000I0J250000D01*
G01*
G37*
D17*
X177287500Y-106110000D03*
X174747500Y-108650000D03*
X177287500Y-108650000D03*
X174747500Y-111190000D03*
X177287500Y-111190000D03*
X174747500Y-113730000D03*
X177287500Y-113730000D03*
X174747500Y-116270000D03*
X177287500Y-116270000D03*
X174747500Y-118810000D03*
X177287500Y-118810000D03*
X174747500Y-121350000D03*
X177287500Y-121350000D03*
X174747500Y-123890000D03*
X177287500Y-123890000D03*
M02*
