M48
; FORMAT={-:-/ absolute / metric / decimal}
; #@! TF.GenerationSoftware,Kicad,Pcbnew,6.0.10+dfsg-1~bpo11+1
; #@! TF.FileFunction,Plated,1,2,PTH
FMAT,2
METRIC
; #@! TA.AperFunction,Plated,PTH,ViaDrill
T1C0.300
; #@! TA.AperFunction,Plated,PTH,ComponentDrill
T2C1.000
%
G90
G05
T1
X170.5Y-118.0
T2
X163.21Y-111.18
X163.21Y-113.72
X163.21Y-116.26
X163.21Y-118.8
X165.75Y-111.18
X165.75Y-113.72
X165.75Y-116.26
X165.75Y-118.8
X174.748Y-106.11
X174.748Y-108.65
X174.748Y-111.19
X174.748Y-113.73
X174.748Y-116.27
X174.748Y-118.81
X174.748Y-121.35
X174.748Y-123.89
X177.287Y-106.11
X177.287Y-108.65
X177.287Y-111.19
X177.287Y-113.73
X177.287Y-116.27
X177.287Y-118.81
X177.287Y-121.35
X177.287Y-123.89
T0
M30
