G04 #@! TF.GenerationSoftware,KiCad,Pcbnew,6.0.10+dfsg-1~bpo11+1*
G04 #@! TF.ProjectId,project,70726f6a-6563-4742-9e6b-696361645f70,rev?*
G04 #@! TF.SameCoordinates,Original*
G04 #@! TF.FileFunction,Copper,L1,Top*
G04 #@! TF.FilePolarity,Positive*
%FSLAX46Y46*%
G04 Gerber Fmt 4.6, Leading zero omitted, Abs format (unit mm)*
%MOMM*%
%LPD*%
G01*
G04 APERTURE LIST*
G04 #@! TA.AperFunction,Profile*
%ADD10C,0.100000*%
G04 #@! TD*
G04 #@! TA.AperFunction,ComponentPad*
%ADD11R,1.700000X1.700000*%
G04 #@! TD*
G04 #@! TA.AperFunction,ComponentPad*
%ADD12O,1.700000X1.700000*%
G04 #@! TD*
G04 #@! TA.AperFunction,ComponentPad*
%ADD13C,1.700000*%
G04 #@! TD*
G04 #@! TA.AperFunction,ViaPad*
%ADD14C,0.700000*%
G04 #@! TD*
G04 #@! TA.AperFunction,Conductor*
%ADD15C,0.500000*%
G04 #@! TD*
G04 #@! TA.AperFunction,Conductor*
%ADD16C,1.000000*%
G04 #@! TD*
G04 APERTURE END LIST*
D10*
X163500000Y-130000000D02*
X181500000Y-130000000D01*
X184500000Y-127000000D02*
X184500000Y-103000000D01*
X160500000Y-103000000D02*
X160500000Y-127000000D01*
X163500000Y-100000000D02*
G75*
G03*
X160500000Y-103000000I0J-3000000D01*
G01*
X160500000Y-127000000D02*
G75*
G03*
X163500000Y-130000000I3000000J0D01*
G01*
X184500000Y-103000000D02*
G75*
G03*
X181500000Y-100000000I-3000000J0D01*
G01*
X181500000Y-100000000D02*
X163500000Y-100000000D01*
X181500000Y-130000000D02*
G75*
G03*
X184500000Y-127000000I0J3000000D01*
G01*
D11*
X163210000Y-118800000D03*
D12*
X163210000Y-116260000D03*
X163210000Y-113720000D03*
X163210000Y-111180000D03*
X165750000Y-111180000D03*
X165750000Y-113720000D03*
X165750000Y-116260000D03*
X165750000Y-118800000D03*
G04 #@! TA.AperFunction,ComponentPad*
G36*
G01*
X173897500Y-106710000D02*
X173897500Y-105510000D01*
G75*
G02*
X174147500Y-105260000I250000J0D01*
G01*
X175347500Y-105260000D01*
G75*
G02*
X175597500Y-105510000I0J-250000D01*
G01*
X175597500Y-106710000D01*
G75*
G02*
X175347500Y-106960000I-250000J0D01*
G01*
X174147500Y-106960000D01*
G75*
G02*
X173897500Y-106710000I0J250000D01*
G01*
G37*
G04 #@! TD.AperFunction*
D13*
X177287500Y-106110000D03*
X174747500Y-108650000D03*
X177287500Y-108650000D03*
X174747500Y-111190000D03*
X177287500Y-111190000D03*
X174747500Y-113730000D03*
X177287500Y-113730000D03*
X174747500Y-116270000D03*
X177287500Y-116270000D03*
X174747500Y-118810000D03*
X177287500Y-118810000D03*
X174747500Y-121350000D03*
X177287500Y-121350000D03*
X174747500Y-123890000D03*
X177287500Y-123890000D03*
D14*
X170500000Y-118000000D03*
D15*
X177287500Y-104787500D02*
X177287500Y-106110000D01*
X176500000Y-104000000D02*
X177287500Y-104787500D01*
X172500000Y-118000000D02*
X172500000Y-106244975D01*
X174000000Y-104000000D02*
X176500000Y-104000000D01*
X170500000Y-120000000D02*
X172500000Y-118000000D01*
X173000000Y-105000000D02*
X174000000Y-104000000D01*
X172500000Y-106244975D02*
X173000000Y-105744975D01*
X166950000Y-120000000D02*
X170500000Y-120000000D01*
X173000000Y-105744975D02*
X173000000Y-105000000D01*
X165750000Y-118800000D02*
X166950000Y-120000000D01*
X177500000Y-103000000D02*
X179500000Y-105000000D01*
X172000000Y-104500000D02*
X173500000Y-103000000D01*
X169500000Y-107500000D02*
X172000000Y-105000000D01*
X173500000Y-103000000D02*
X177500000Y-103000000D01*
X163210000Y-109290000D02*
X165000000Y-107500000D01*
X165000000Y-107500000D02*
X169500000Y-107500000D01*
X179500000Y-108000000D02*
X178850000Y-108650000D01*
X172000000Y-105000000D02*
X172000000Y-104500000D01*
X179500000Y-105000000D02*
X179500000Y-108000000D01*
X163210000Y-111180000D02*
X163210000Y-109290000D01*
X178850000Y-108650000D02*
X177287500Y-108650000D01*
X161500000Y-109000000D02*
X164500000Y-106000000D01*
X178500000Y-102000000D02*
X180500000Y-104000000D01*
X180500000Y-104000000D02*
X180500000Y-115000000D01*
X173000000Y-102000000D02*
X178500000Y-102000000D01*
X162715000Y-113720000D02*
X161500000Y-112505000D01*
X164500000Y-106000000D02*
X169500000Y-106000000D01*
X161500000Y-112505000D02*
X161500000Y-109000000D01*
X169500000Y-106000000D02*
X171000000Y-104500000D01*
X163210000Y-113720000D02*
X162715000Y-113720000D01*
X171000000Y-104500000D02*
X171000000Y-104000000D01*
X180500000Y-115000000D02*
X179230000Y-116270000D01*
X179230000Y-116270000D02*
X177287500Y-116270000D01*
X171000000Y-104000000D02*
X173000000Y-102000000D01*
X179310000Y-118810000D02*
X177287500Y-118810000D01*
X163210000Y-116260000D02*
X162725000Y-116260000D01*
X161500000Y-121000000D02*
X162500000Y-122000000D01*
X162500000Y-122000000D02*
X168500000Y-122000000D01*
X162725000Y-116260000D02*
X161500000Y-117485000D01*
X172500000Y-126000000D02*
X178500000Y-126000000D01*
X180500000Y-124000000D02*
X180500000Y-120000000D01*
X161500000Y-117485000D02*
X161500000Y-121000000D01*
X178500000Y-126000000D02*
X180500000Y-124000000D01*
X168500000Y-122000000D02*
X172500000Y-126000000D01*
X180500000Y-120000000D02*
X179310000Y-118810000D01*
D16*
X170500000Y-118000000D02*
X168500000Y-116000000D01*
X168500000Y-112000000D02*
X167680000Y-111180000D01*
X167680000Y-111180000D02*
X165750000Y-111180000D01*
X168500000Y-116000000D02*
X168500000Y-112000000D01*
M02*
