%TF.GenerationSoftware,KiCad,Pcbnew,6.0.10+dfsg-1~bpo11+1*%
%TF.ProjectId,project,70726f6a-6563-4742-9e6b-696361645f70,rev?*%
%TF.SameCoordinates,Original*%
%TF.FileFunction,Drillmap*%
%TF.FilePolarity,Positive*%
%FSLAX45Y45*%
G04 Gerber Fmt 4.5, Leading zero omitted, Abs format (unit mm)*
%MOMM*%
%LPD*%
G01*
G04 APERTURE LIST*
%ADD10C,0.100000*%
%ADD11C,0.200000*%
%ADD12C,0.030000*%
G04 APERTURE END LIST*
D10*
X16350000Y-13000000D02*
X18150000Y-13000000D01*
X18450000Y-12700000D02*
X18450000Y-10300000D01*
X16050000Y-10300000D02*
X16050000Y-12700000D01*
X16350000Y-10000000D02*
G75*
G03*
X16050000Y-10300000I0J-300000D01*
G01*
X16050000Y-12700000D02*
G75*
G03*
X16350000Y-13000000I300000J0D01*
G01*
X18450000Y-10300000D02*
G75*
G03*
X18150000Y-10000000I-300000J0D01*
G01*
X18150000Y-10000000D02*
X16350000Y-10000000D01*
X18150000Y-13000000D02*
G75*
G03*
X18450000Y-12700000I0J300000D01*
G01*
D11*
D12*
X17035000Y-11785000D02*
X17065000Y-11815000D01*
X17065000Y-11785000D02*
X17035000Y-11815000D01*
D10*
X16371000Y-11118000D02*
G75*
G03*
X16371000Y-11118000I-50000J0D01*
G01*
X16371000Y-11372000D02*
G75*
G03*
X16371000Y-11372000I-50000J0D01*
G01*
X16371000Y-11626000D02*
G75*
G03*
X16371000Y-11626000I-50000J0D01*
G01*
X16371000Y-11880000D02*
G75*
G03*
X16371000Y-11880000I-50000J0D01*
G01*
X16625000Y-11118000D02*
G75*
G03*
X16625000Y-11118000I-50000J0D01*
G01*
X16625000Y-11372000D02*
G75*
G03*
X16625000Y-11372000I-50000J0D01*
G01*
X16625000Y-11626000D02*
G75*
G03*
X16625000Y-11626000I-50000J0D01*
G01*
X16625000Y-11880000D02*
G75*
G03*
X16625000Y-11880000I-50000J0D01*
G01*
X17524750Y-10611000D02*
G75*
G03*
X17524750Y-10611000I-50000J0D01*
G01*
X17524750Y-10865000D02*
G75*
G03*
X17524750Y-10865000I-50000J0D01*
G01*
X17524750Y-11119000D02*
G75*
G03*
X17524750Y-11119000I-50000J0D01*
G01*
X17524750Y-11373000D02*
G75*
G03*
X17524750Y-11373000I-50000J0D01*
G01*
X17524750Y-11627000D02*
G75*
G03*
X17524750Y-11627000I-50000J0D01*
G01*
X17524750Y-11881000D02*
G75*
G03*
X17524750Y-11881000I-50000J0D01*
G01*
X17524750Y-12135000D02*
G75*
G03*
X17524750Y-12135000I-50000J0D01*
G01*
X17524750Y-12389000D02*
G75*
G03*
X17524750Y-12389000I-50000J0D01*
G01*
X17778750Y-10611000D02*
G75*
G03*
X17778750Y-10611000I-50000J0D01*
G01*
X17778750Y-10865000D02*
G75*
G03*
X17778750Y-10865000I-50000J0D01*
G01*
X17778750Y-11119000D02*
G75*
G03*
X17778750Y-11119000I-50000J0D01*
G01*
X17778750Y-11373000D02*
G75*
G03*
X17778750Y-11373000I-50000J0D01*
G01*
X17778750Y-11627000D02*
G75*
G03*
X17778750Y-11627000I-50000J0D01*
G01*
X17778750Y-11881000D02*
G75*
G03*
X17778750Y-11881000I-50000J0D01*
G01*
X17778750Y-12135000D02*
G75*
G03*
X17778750Y-12135000I-50000J0D01*
G01*
X17778750Y-12389000D02*
G75*
G03*
X17778750Y-12389000I-50000J0D01*
G01*
D11*
X16302619Y-13315476D02*
X16302619Y-13115476D01*
X16350238Y-13115476D01*
X16378809Y-13125000D01*
X16397857Y-13144048D01*
X16407381Y-13163095D01*
X16416905Y-13201190D01*
X16416905Y-13229762D01*
X16407381Y-13267857D01*
X16397857Y-13286905D01*
X16378809Y-13305952D01*
X16350238Y-13315476D01*
X16302619Y-13315476D01*
X16502619Y-13315476D02*
X16502619Y-13182143D01*
X16502619Y-13220238D02*
X16512143Y-13201190D01*
X16521667Y-13191667D01*
X16540714Y-13182143D01*
X16559762Y-13182143D01*
X16626428Y-13315476D02*
X16626428Y-13182143D01*
X16626428Y-13115476D02*
X16616905Y-13125000D01*
X16626428Y-13134524D01*
X16635952Y-13125000D01*
X16626428Y-13115476D01*
X16626428Y-13134524D01*
X16750238Y-13315476D02*
X16731190Y-13305952D01*
X16721667Y-13286905D01*
X16721667Y-13115476D01*
X16855000Y-13315476D02*
X16835952Y-13305952D01*
X16826429Y-13286905D01*
X16826429Y-13115476D01*
X17083571Y-13315476D02*
X17083571Y-13115476D01*
X17150238Y-13258333D01*
X17216905Y-13115476D01*
X17216905Y-13315476D01*
X17397857Y-13315476D02*
X17397857Y-13210714D01*
X17388333Y-13191667D01*
X17369286Y-13182143D01*
X17331190Y-13182143D01*
X17312143Y-13191667D01*
X17397857Y-13305952D02*
X17378810Y-13315476D01*
X17331190Y-13315476D01*
X17312143Y-13305952D01*
X17302619Y-13286905D01*
X17302619Y-13267857D01*
X17312143Y-13248809D01*
X17331190Y-13239286D01*
X17378810Y-13239286D01*
X17397857Y-13229762D01*
X17493095Y-13182143D02*
X17493095Y-13382143D01*
X17493095Y-13191667D02*
X17512143Y-13182143D01*
X17550238Y-13182143D01*
X17569286Y-13191667D01*
X17578810Y-13201190D01*
X17588333Y-13220238D01*
X17588333Y-13277381D01*
X17578810Y-13296428D01*
X17569286Y-13305952D01*
X17550238Y-13315476D01*
X17512143Y-13315476D01*
X17493095Y-13305952D01*
X17674048Y-13296428D02*
X17683571Y-13305952D01*
X17674048Y-13315476D01*
X17664524Y-13305952D01*
X17674048Y-13296428D01*
X17674048Y-13315476D01*
X17674048Y-13191667D02*
X17683571Y-13201190D01*
X17674048Y-13210714D01*
X17664524Y-13201190D01*
X17674048Y-13191667D01*
X17674048Y-13210714D01*
D12*
X16015000Y-13630000D02*
X16045000Y-13660000D01*
X16045000Y-13630000D02*
X16015000Y-13660000D01*
D11*
X16340714Y-13535476D02*
X16359762Y-13535476D01*
X16378809Y-13545000D01*
X16388333Y-13554524D01*
X16397857Y-13573571D01*
X16407381Y-13611667D01*
X16407381Y-13659286D01*
X16397857Y-13697381D01*
X16388333Y-13716428D01*
X16378809Y-13725952D01*
X16359762Y-13735476D01*
X16340714Y-13735476D01*
X16321667Y-13725952D01*
X16312143Y-13716428D01*
X16302619Y-13697381D01*
X16293095Y-13659286D01*
X16293095Y-13611667D01*
X16302619Y-13573571D01*
X16312143Y-13554524D01*
X16321667Y-13545000D01*
X16340714Y-13535476D01*
X16493095Y-13716428D02*
X16502619Y-13725952D01*
X16493095Y-13735476D01*
X16483571Y-13725952D01*
X16493095Y-13716428D01*
X16493095Y-13735476D01*
X16569286Y-13535476D02*
X16693095Y-13535476D01*
X16626428Y-13611667D01*
X16655000Y-13611667D01*
X16674048Y-13621190D01*
X16683571Y-13630714D01*
X16693095Y-13649762D01*
X16693095Y-13697381D01*
X16683571Y-13716428D01*
X16674048Y-13725952D01*
X16655000Y-13735476D01*
X16597857Y-13735476D01*
X16578809Y-13725952D01*
X16569286Y-13716428D01*
X16816905Y-13535476D02*
X16835952Y-13535476D01*
X16855000Y-13545000D01*
X16864524Y-13554524D01*
X16874048Y-13573571D01*
X16883571Y-13611667D01*
X16883571Y-13659286D01*
X16874048Y-13697381D01*
X16864524Y-13716428D01*
X16855000Y-13725952D01*
X16835952Y-13735476D01*
X16816905Y-13735476D01*
X16797857Y-13725952D01*
X16788333Y-13716428D01*
X16778810Y-13697381D01*
X16769286Y-13659286D01*
X16769286Y-13611667D01*
X16778810Y-13573571D01*
X16788333Y-13554524D01*
X16797857Y-13545000D01*
X16816905Y-13535476D01*
X17007381Y-13535476D02*
X17026429Y-13535476D01*
X17045476Y-13545000D01*
X17055000Y-13554524D01*
X17064524Y-13573571D01*
X17074048Y-13611667D01*
X17074048Y-13659286D01*
X17064524Y-13697381D01*
X17055000Y-13716428D01*
X17045476Y-13725952D01*
X17026429Y-13735476D01*
X17007381Y-13735476D01*
X16988333Y-13725952D01*
X16978810Y-13716428D01*
X16969286Y-13697381D01*
X16959762Y-13659286D01*
X16959762Y-13611667D01*
X16969286Y-13573571D01*
X16978810Y-13554524D01*
X16988333Y-13545000D01*
X17007381Y-13535476D01*
X17159762Y-13735476D02*
X17159762Y-13602143D01*
X17159762Y-13621190D02*
X17169286Y-13611667D01*
X17188333Y-13602143D01*
X17216905Y-13602143D01*
X17235952Y-13611667D01*
X17245476Y-13630714D01*
X17245476Y-13735476D01*
X17245476Y-13630714D02*
X17255000Y-13611667D01*
X17274048Y-13602143D01*
X17302619Y-13602143D01*
X17321667Y-13611667D01*
X17331190Y-13630714D01*
X17331190Y-13735476D01*
X17426429Y-13735476D02*
X17426429Y-13602143D01*
X17426429Y-13621190D02*
X17435952Y-13611667D01*
X17455000Y-13602143D01*
X17483571Y-13602143D01*
X17502619Y-13611667D01*
X17512143Y-13630714D01*
X17512143Y-13735476D01*
X17512143Y-13630714D02*
X17521667Y-13611667D01*
X17540714Y-13602143D01*
X17569286Y-13602143D01*
X17588333Y-13611667D01*
X17597857Y-13630714D01*
X17597857Y-13735476D01*
X17988333Y-13525952D02*
X17816905Y-13783095D01*
X18245476Y-13535476D02*
X18264524Y-13535476D01*
X18283571Y-13545000D01*
X18293095Y-13554524D01*
X18302619Y-13573571D01*
X18312143Y-13611667D01*
X18312143Y-13659286D01*
X18302619Y-13697381D01*
X18293095Y-13716428D01*
X18283571Y-13725952D01*
X18264524Y-13735476D01*
X18245476Y-13735476D01*
X18226429Y-13725952D01*
X18216905Y-13716428D01*
X18207381Y-13697381D01*
X18197857Y-13659286D01*
X18197857Y-13611667D01*
X18207381Y-13573571D01*
X18216905Y-13554524D01*
X18226429Y-13545000D01*
X18245476Y-13535476D01*
X18397857Y-13716428D02*
X18407381Y-13725952D01*
X18397857Y-13735476D01*
X18388333Y-13725952D01*
X18397857Y-13716428D01*
X18397857Y-13735476D01*
X18531190Y-13535476D02*
X18550238Y-13535476D01*
X18569286Y-13545000D01*
X18578810Y-13554524D01*
X18588333Y-13573571D01*
X18597857Y-13611667D01*
X18597857Y-13659286D01*
X18588333Y-13697381D01*
X18578810Y-13716428D01*
X18569286Y-13725952D01*
X18550238Y-13735476D01*
X18531190Y-13735476D01*
X18512143Y-13725952D01*
X18502619Y-13716428D01*
X18493095Y-13697381D01*
X18483571Y-13659286D01*
X18483571Y-13611667D01*
X18493095Y-13573571D01*
X18502619Y-13554524D01*
X18512143Y-13545000D01*
X18531190Y-13535476D01*
X18788333Y-13735476D02*
X18674048Y-13735476D01*
X18731190Y-13735476D02*
X18731190Y-13535476D01*
X18712143Y-13564048D01*
X18693095Y-13583095D01*
X18674048Y-13592619D01*
X18978810Y-13735476D02*
X18864524Y-13735476D01*
X18921667Y-13735476D02*
X18921667Y-13535476D01*
X18902619Y-13564048D01*
X18883571Y-13583095D01*
X18864524Y-13592619D01*
X19093095Y-13621190D02*
X19074048Y-13611667D01*
X19064524Y-13602143D01*
X19055000Y-13583095D01*
X19055000Y-13573571D01*
X19064524Y-13554524D01*
X19074048Y-13545000D01*
X19093095Y-13535476D01*
X19131190Y-13535476D01*
X19150238Y-13545000D01*
X19159762Y-13554524D01*
X19169286Y-13573571D01*
X19169286Y-13583095D01*
X19159762Y-13602143D01*
X19150238Y-13611667D01*
X19131190Y-13621190D01*
X19093095Y-13621190D01*
X19074048Y-13630714D01*
X19064524Y-13640238D01*
X19055000Y-13659286D01*
X19055000Y-13697381D01*
X19064524Y-13716428D01*
X19074048Y-13725952D01*
X19093095Y-13735476D01*
X19131190Y-13735476D01*
X19150238Y-13725952D01*
X19159762Y-13716428D01*
X19169286Y-13697381D01*
X19169286Y-13659286D01*
X19159762Y-13640238D01*
X19150238Y-13630714D01*
X19131190Y-13621190D01*
X19245476Y-13535476D02*
X19245476Y-13573571D01*
X19321667Y-13535476D02*
X19321667Y-13573571D01*
X19616905Y-13811667D02*
X19607381Y-13802143D01*
X19588333Y-13773571D01*
X19578810Y-13754524D01*
X19569286Y-13725952D01*
X19559762Y-13678333D01*
X19559762Y-13640238D01*
X19569286Y-13592619D01*
X19578810Y-13564048D01*
X19588333Y-13545000D01*
X19607381Y-13516428D01*
X19616905Y-13506905D01*
X19797857Y-13735476D02*
X19683571Y-13735476D01*
X19740714Y-13735476D02*
X19740714Y-13535476D01*
X19721667Y-13564048D01*
X19702619Y-13583095D01*
X19683571Y-13592619D01*
X20035952Y-13735476D02*
X20035952Y-13535476D01*
X20121667Y-13735476D02*
X20121667Y-13630714D01*
X20112143Y-13611667D01*
X20093095Y-13602143D01*
X20064524Y-13602143D01*
X20045476Y-13611667D01*
X20035952Y-13621190D01*
X20245476Y-13735476D02*
X20226429Y-13725952D01*
X20216905Y-13716428D01*
X20207381Y-13697381D01*
X20207381Y-13640238D01*
X20216905Y-13621190D01*
X20226429Y-13611667D01*
X20245476Y-13602143D01*
X20274048Y-13602143D01*
X20293095Y-13611667D01*
X20302619Y-13621190D01*
X20312143Y-13640238D01*
X20312143Y-13697381D01*
X20302619Y-13716428D01*
X20293095Y-13725952D01*
X20274048Y-13735476D01*
X20245476Y-13735476D01*
X20426429Y-13735476D02*
X20407381Y-13725952D01*
X20397857Y-13706905D01*
X20397857Y-13535476D01*
X20578810Y-13725952D02*
X20559762Y-13735476D01*
X20521667Y-13735476D01*
X20502619Y-13725952D01*
X20493095Y-13706905D01*
X20493095Y-13630714D01*
X20502619Y-13611667D01*
X20521667Y-13602143D01*
X20559762Y-13602143D01*
X20578810Y-13611667D01*
X20588333Y-13630714D01*
X20588333Y-13649762D01*
X20493095Y-13668809D01*
X20655000Y-13811667D02*
X20664524Y-13802143D01*
X20683571Y-13773571D01*
X20693095Y-13754524D01*
X20702619Y-13725952D01*
X20712143Y-13678333D01*
X20712143Y-13640238D01*
X20702619Y-13592619D01*
X20693095Y-13564048D01*
X20683571Y-13545000D01*
X20664524Y-13516428D01*
X20655000Y-13506905D01*
D10*
X16045000Y-13909000D02*
G75*
G03*
X16045000Y-13909000I-50000J0D01*
G01*
D11*
X16407381Y-13999476D02*
X16293095Y-13999476D01*
X16350238Y-13999476D02*
X16350238Y-13799476D01*
X16331190Y-13828048D01*
X16312143Y-13847095D01*
X16293095Y-13856619D01*
X16493095Y-13980428D02*
X16502619Y-13989952D01*
X16493095Y-13999476D01*
X16483571Y-13989952D01*
X16493095Y-13980428D01*
X16493095Y-13999476D01*
X16626428Y-13799476D02*
X16645476Y-13799476D01*
X16664524Y-13809000D01*
X16674048Y-13818524D01*
X16683571Y-13837571D01*
X16693095Y-13875667D01*
X16693095Y-13923286D01*
X16683571Y-13961381D01*
X16674048Y-13980428D01*
X16664524Y-13989952D01*
X16645476Y-13999476D01*
X16626428Y-13999476D01*
X16607381Y-13989952D01*
X16597857Y-13980428D01*
X16588333Y-13961381D01*
X16578809Y-13923286D01*
X16578809Y-13875667D01*
X16588333Y-13837571D01*
X16597857Y-13818524D01*
X16607381Y-13809000D01*
X16626428Y-13799476D01*
X16816905Y-13799476D02*
X16835952Y-13799476D01*
X16855000Y-13809000D01*
X16864524Y-13818524D01*
X16874048Y-13837571D01*
X16883571Y-13875667D01*
X16883571Y-13923286D01*
X16874048Y-13961381D01*
X16864524Y-13980428D01*
X16855000Y-13989952D01*
X16835952Y-13999476D01*
X16816905Y-13999476D01*
X16797857Y-13989952D01*
X16788333Y-13980428D01*
X16778810Y-13961381D01*
X16769286Y-13923286D01*
X16769286Y-13875667D01*
X16778810Y-13837571D01*
X16788333Y-13818524D01*
X16797857Y-13809000D01*
X16816905Y-13799476D01*
X17007381Y-13799476D02*
X17026429Y-13799476D01*
X17045476Y-13809000D01*
X17055000Y-13818524D01*
X17064524Y-13837571D01*
X17074048Y-13875667D01*
X17074048Y-13923286D01*
X17064524Y-13961381D01*
X17055000Y-13980428D01*
X17045476Y-13989952D01*
X17026429Y-13999476D01*
X17007381Y-13999476D01*
X16988333Y-13989952D01*
X16978810Y-13980428D01*
X16969286Y-13961381D01*
X16959762Y-13923286D01*
X16959762Y-13875667D01*
X16969286Y-13837571D01*
X16978810Y-13818524D01*
X16988333Y-13809000D01*
X17007381Y-13799476D01*
X17159762Y-13999476D02*
X17159762Y-13866143D01*
X17159762Y-13885190D02*
X17169286Y-13875667D01*
X17188333Y-13866143D01*
X17216905Y-13866143D01*
X17235952Y-13875667D01*
X17245476Y-13894714D01*
X17245476Y-13999476D01*
X17245476Y-13894714D02*
X17255000Y-13875667D01*
X17274048Y-13866143D01*
X17302619Y-13866143D01*
X17321667Y-13875667D01*
X17331190Y-13894714D01*
X17331190Y-13999476D01*
X17426429Y-13999476D02*
X17426429Y-13866143D01*
X17426429Y-13885190D02*
X17435952Y-13875667D01*
X17455000Y-13866143D01*
X17483571Y-13866143D01*
X17502619Y-13875667D01*
X17512143Y-13894714D01*
X17512143Y-13999476D01*
X17512143Y-13894714D02*
X17521667Y-13875667D01*
X17540714Y-13866143D01*
X17569286Y-13866143D01*
X17588333Y-13875667D01*
X17597857Y-13894714D01*
X17597857Y-13999476D01*
X17988333Y-13789952D02*
X17816905Y-14047095D01*
X18245476Y-13799476D02*
X18264524Y-13799476D01*
X18283571Y-13809000D01*
X18293095Y-13818524D01*
X18302619Y-13837571D01*
X18312143Y-13875667D01*
X18312143Y-13923286D01*
X18302619Y-13961381D01*
X18293095Y-13980428D01*
X18283571Y-13989952D01*
X18264524Y-13999476D01*
X18245476Y-13999476D01*
X18226429Y-13989952D01*
X18216905Y-13980428D01*
X18207381Y-13961381D01*
X18197857Y-13923286D01*
X18197857Y-13875667D01*
X18207381Y-13837571D01*
X18216905Y-13818524D01*
X18226429Y-13809000D01*
X18245476Y-13799476D01*
X18397857Y-13980428D02*
X18407381Y-13989952D01*
X18397857Y-13999476D01*
X18388333Y-13989952D01*
X18397857Y-13980428D01*
X18397857Y-13999476D01*
X18531190Y-13799476D02*
X18550238Y-13799476D01*
X18569286Y-13809000D01*
X18578810Y-13818524D01*
X18588333Y-13837571D01*
X18597857Y-13875667D01*
X18597857Y-13923286D01*
X18588333Y-13961381D01*
X18578810Y-13980428D01*
X18569286Y-13989952D01*
X18550238Y-13999476D01*
X18531190Y-13999476D01*
X18512143Y-13989952D01*
X18502619Y-13980428D01*
X18493095Y-13961381D01*
X18483571Y-13923286D01*
X18483571Y-13875667D01*
X18493095Y-13837571D01*
X18502619Y-13818524D01*
X18512143Y-13809000D01*
X18531190Y-13799476D01*
X18664524Y-13799476D02*
X18788333Y-13799476D01*
X18721667Y-13875667D01*
X18750238Y-13875667D01*
X18769286Y-13885190D01*
X18778810Y-13894714D01*
X18788333Y-13913762D01*
X18788333Y-13961381D01*
X18778810Y-13980428D01*
X18769286Y-13989952D01*
X18750238Y-13999476D01*
X18693095Y-13999476D01*
X18674048Y-13989952D01*
X18664524Y-13980428D01*
X18883571Y-13999476D02*
X18921667Y-13999476D01*
X18940714Y-13989952D01*
X18950238Y-13980428D01*
X18969286Y-13951857D01*
X18978810Y-13913762D01*
X18978810Y-13837571D01*
X18969286Y-13818524D01*
X18959762Y-13809000D01*
X18940714Y-13799476D01*
X18902619Y-13799476D01*
X18883571Y-13809000D01*
X18874048Y-13818524D01*
X18864524Y-13837571D01*
X18864524Y-13885190D01*
X18874048Y-13904238D01*
X18883571Y-13913762D01*
X18902619Y-13923286D01*
X18940714Y-13923286D01*
X18959762Y-13913762D01*
X18969286Y-13904238D01*
X18978810Y-13885190D01*
X19150238Y-13866143D02*
X19150238Y-13999476D01*
X19102619Y-13789952D02*
X19055000Y-13932809D01*
X19178810Y-13932809D01*
X19245476Y-13799476D02*
X19245476Y-13837571D01*
X19321667Y-13799476D02*
X19321667Y-13837571D01*
X19616905Y-14075667D02*
X19607381Y-14066143D01*
X19588333Y-14037571D01*
X19578810Y-14018524D01*
X19569286Y-13989952D01*
X19559762Y-13942333D01*
X19559762Y-13904238D01*
X19569286Y-13856619D01*
X19578810Y-13828048D01*
X19588333Y-13809000D01*
X19607381Y-13780428D01*
X19616905Y-13770905D01*
X19683571Y-13818524D02*
X19693095Y-13809000D01*
X19712143Y-13799476D01*
X19759762Y-13799476D01*
X19778810Y-13809000D01*
X19788333Y-13818524D01*
X19797857Y-13837571D01*
X19797857Y-13856619D01*
X19788333Y-13885190D01*
X19674048Y-13999476D01*
X19797857Y-13999476D01*
X19969286Y-13866143D02*
X19969286Y-13999476D01*
X19921667Y-13789952D02*
X19874048Y-13932809D01*
X19997857Y-13932809D01*
X20226429Y-13999476D02*
X20226429Y-13799476D01*
X20312143Y-13999476D02*
X20312143Y-13894714D01*
X20302619Y-13875667D01*
X20283571Y-13866143D01*
X20255000Y-13866143D01*
X20235952Y-13875667D01*
X20226429Y-13885190D01*
X20435952Y-13999476D02*
X20416905Y-13989952D01*
X20407381Y-13980428D01*
X20397857Y-13961381D01*
X20397857Y-13904238D01*
X20407381Y-13885190D01*
X20416905Y-13875667D01*
X20435952Y-13866143D01*
X20464524Y-13866143D01*
X20483571Y-13875667D01*
X20493095Y-13885190D01*
X20502619Y-13904238D01*
X20502619Y-13961381D01*
X20493095Y-13980428D01*
X20483571Y-13989952D01*
X20464524Y-13999476D01*
X20435952Y-13999476D01*
X20616905Y-13999476D02*
X20597857Y-13989952D01*
X20588333Y-13970905D01*
X20588333Y-13799476D01*
X20769286Y-13989952D02*
X20750238Y-13999476D01*
X20712143Y-13999476D01*
X20693095Y-13989952D01*
X20683571Y-13970905D01*
X20683571Y-13894714D01*
X20693095Y-13875667D01*
X20712143Y-13866143D01*
X20750238Y-13866143D01*
X20769286Y-13875667D01*
X20778810Y-13894714D01*
X20778810Y-13913762D01*
X20683571Y-13932809D01*
X20855000Y-13989952D02*
X20874048Y-13999476D01*
X20912143Y-13999476D01*
X20931190Y-13989952D01*
X20940714Y-13970905D01*
X20940714Y-13961381D01*
X20931190Y-13942333D01*
X20912143Y-13932809D01*
X20883571Y-13932809D01*
X20864524Y-13923286D01*
X20855000Y-13904238D01*
X20855000Y-13894714D01*
X20864524Y-13875667D01*
X20883571Y-13866143D01*
X20912143Y-13866143D01*
X20931190Y-13875667D01*
X21007381Y-14075667D02*
X21016905Y-14066143D01*
X21035952Y-14037571D01*
X21045476Y-14018524D01*
X21055000Y-13989952D01*
X21064524Y-13942333D01*
X21064524Y-13904238D01*
X21055000Y-13856619D01*
X21045476Y-13828048D01*
X21035952Y-13809000D01*
X21016905Y-13780428D01*
X21007381Y-13770905D01*
M02*
